<?xml version="1.0" encoding="UTF-8"?>
<svg id="Capa_2" data-name="Capa 2" xmlns="http://www.w3.org/2000/svg" viewBox="0 0 50 50">
  <defs>
    <style>
      .cls-1 {
        fill: none;
        stroke: #000;
        stroke-linecap: round;
        stroke-linejoin: round;
      }
    </style>
  </defs>
  <path class="cls-1" d="M32.45,36.74c.2-1.52,3.73-4.66,4.75-4.76,2.05-.19,8.74,7.48,10.78,9.96,3.38,4.08-2.76,8.89-5.5,6.12-1.1-1.11-9.27-8.27-9.98-11.12-.02-.07-.06-.13-.05-.2Z"/>
  <polygon class="cls-1" points="28.34 30.16 31.47 33.29 33.37 31.39 30.23 28.25 28.34 30.16"/>
  <path class="cls-1" d="M31.7,33.6c-.38.4-.38,1.04.02,1.44.39.39.8.8.8.8l3.54-3.54s-.44-.44-.85-.85c-.2-.2-.46-.3-.74-.3-.28,0-.54.12-.73.32-.6.63-1.45,1.52-2.04,2.14Z"/>
  <path class="cls-1" d="M29.98,6.5c6,7.56,5.28,16.47-1.01,23.03-6.33,6.6-17.13,4.97-22.48.07C-1.45,22.32.3,10.61,7.03,5.11c7.78-6.36,15.83-4.11,20.69-.67"/>
  <path class="cls-1" d="M7.47,26.12c-4.96-6.02-4.1-12.82.9-18.22,5.03-5.42,13.79-4.26,18.19-.38,6.53,5.76,5.28,15.25-.08,19.79-6.2,5.25-12.34,3.75-16.32,1.05"/>
  <line class="cls-1" x1="13.52" y1="14.11" x2="24.43" y2="14.11"/>
  <circle cx="11.47" cy="14.11" r=".62"/>
  <circle cx="11.47" cy="17.4" r=".62"/>
  <circle cx="11.47" cy="20.69" r=".62"/>
  <line class="cls-1" x1="13.52" y1="17.4" x2="24.43" y2="17.4"/>
  <line class="cls-1" x1="13.52" y1="20.69" x2="24.43" y2="20.69"/>
  <path class="cls-1" d="M35.54,33.24c-.1-.81,12.07,11.07,12.55,12.76"/>
  <path class="cls-1" d="M33.69,35.3s1.92,2.19,2.88,3.29"/>
  <path class="cls-1" d="M38.83,40.85s5.3,5.81,7.82,7.2"/>
</svg>