<?xml version="1.0" encoding="UTF-8"?>
<svg id="Capa_2" data-name="Capa 2" xmlns="http://www.w3.org/2000/svg" viewBox="0 0 50 50">
  <defs>
    <style>
      .cls-1 {
        fill: none;
        stroke: #000;
        stroke-linecap: round;
        stroke-linejoin: round;
      }
    </style>
  </defs>
  <path class="cls-1" d="M7.41,12.25h34.8v-2.13c0-.93-.37-1.81-1.02-2.47-.65-.65-1.54-1.02-2.47-1.02H10.9c-.93,0-1.81.37-2.47,1.02-.65.65-1.02,1.54-1.02,2.47v2.13Z"/>
  <polyline class="cls-1" points="9.8 12.25 12.38 48.35 37.24 48.35 39.83 12.25"/>
  <path class="cls-1" d="M17.13,6.41v-.15c0-1.16.46-2.28,1.29-3.1.82-.82,1.94-1.29,3.1-1.29h6.57c1.16,0,2.28.46,3.1,1.29.82.82,1.29,1.94,1.29,3.1v.15"/>
  <line class="cls-1" x1="17.57" y1="18.41" x2="18.86" y2="42.19"/>
  <line class="cls-1" x1="24.7" y1="18.41" x2="24.92" y2="42.19"/>
  <line class="cls-1" x1="32.26" y1="18.41" x2="30.97" y2="42.19"/>
</svg>