<?xml version="1.0" encoding="UTF-8"?>
<svg id="Capa_1_copia" data-name="Capa 1 copia" xmlns="http://www.w3.org/2000/svg" viewBox="0 0 119.71 69">
  <defs>
    <style>
      .cls-1 {
        fill: #099639;
      }

      .cls-2 {
        fill: #d71217;
      }
    </style>
  </defs>
  <g>
    <path class="cls-1" d="M26.65,29.65c-.26.13-3.23,1.65-3.74,5.11-.5,3.37,1.77,5.65,2,5.87h14.83l-3.17,7.77-35.4-.06c-.05.72-.27,5.44,3.34,8.93,2.33,2.24,5.02,2.79,6.09,2.95h35.21l11.3-30.72-30.45.16Z"/>
    <path class="cls-1" d="M10.23,22.59c16.4,0,32.81,0,49.21,0l4.81-12.74c-14.65-.03-29.3-.07-43.96-.1-.95.15-4.52.82-7.27,4.04-3.15,3.69-2.87,7.98-2.8,8.8Z"/>
  </g>
  <path class="cls-2" d="M69.01,9.86l-18.86,50.12,12.82.24,14.51-37.92h31.23c.78-.16,6.48-1.46,8.96-6.71,1.11-2.35,1.14-4.56,1.04-5.84-16.57.03-33.14.07-49.7.1Z"/>
</svg>