<?xml version="1.0" encoding="UTF-8"?>
<svg id="Logo" xmlns="http://www.w3.org/2000/svg" viewBox="0 0 233.46 58.79">
  <defs>
    <style>
      .cls-1 {
        fill: #dc0208;
      }

      .cls-2 {
        fill: #00963b;
      }

      .cls-3 {
        isolation: isolate;
      }

      .cls-4 {
        fill: #fff;
      }
    </style>
  </defs>
  <g>
    <g class="cls-3">
      <path class="cls-1" d="M197.32.04c7.05.02,14.06.02,21.06.02,4.67,0,9.34,0,14.01,0,1.18,0,1.11,0,1.03,1.2-.29,4.44-4.15,7.73-8.45,7.73-.11,0-.21,0-.32-.01-.64-.02-1.27-.03-1.91-.03-1.08,0-2.18.02-3.27.02-1.72,0-3.46,0-5.18,0-1.87,0-3.74,0-5.6,0s-3.74,0-5.6-.01c-.61,0-.86.2-1.06.75-2.67,7.18-5.36,14.34-8.05,21.52-.73,1.93-1.49,3.85-2.17,5.81-.2.54-.48.68-1.02.68-1.3-.01-2.58-.01-3.86-.01s-2.57,0-3.85,0c-.99,0-1.01-.04-.65-1.02,1.82-4.83,3.64-9.66,5.46-14.48,2.62-7.01,5.26-13.99,7.85-21.01.31-.83.69-1.16,1.6-1.16Z"/>
    </g>
    <g>
      <path class="cls-2" d="M164.88,14.46c3.06.01,6.11.02,9.17.02,4.07,0,8.14,0,12.21,0,1.04.02,1.06.03.69,1-1.62,4.29-3.28,8.58-4.9,12.88-1.07,2.82-2.11,5.68-3.13,8.53-.22.62-.52.84-1.13.84-2.15-.01-4.2-.01-6.26-.01-2.06,0-4.11,0-6.17,0-3.9,0-7.78,0-11.68-.01-4.37-.01-7.68-2.67-8.66-6.97-.36-1.57.04-2.07,1.65-2.07.35,0,.69,0,1.03,0,.83,0,1.65,0,2.48-.02.99,0,1.97,0,2.96,0,1.58,0,3.16.01,4.73.07,1.94.08,3.87.1,5.81.1.61,0,1.22,0,1.84,0,1.97,0,3.95,0,5.92.04.77,0,1.15-.22,1.37-.91.4-1.22.91-2.4,1.34-3.61.34-.94.32-.98-.72-.98-2.74,0-5.47,0-8.19,0-2.32,0-3.05-.47-3.45-2.73-.33-1.9-.39-3.86,1.17-5.37.54-.52,1.17-.79,1.93-.79Z"/>
      <path class="cls-2" d="M164.01,0c.2.01.4.01.61.01.27.01.48.01.7.02h.19c.2,0,.39.01.59.01.23.01.47.01.69.02.21,0,.41.01.62.01h.13c.21.01.41.01.63.01.28,0,.48,0,.68.01.2,0,.34-.01.48-.01.83,0,1.66-.01,2.48-.01h.76c.58-.01,1.17-.01,1.74-.01h.85c.63,0,1.24,0,1.86,0h.61c.16,0,.32,0,.48,0,.9,0,1.82,0,2.72,0h1.01c.9,0,1.8,0,2.72.01h2.11c.42,0,.85,0,1.27,0,1.04,0,2.09,0,3.14,0,.22-.01.28-.01.34-.01-.18,2.25-.88,4.38-1.67,6.49-.3.8-.23,1.94-.99,2.31l-.1.04-.12.04-.13.03-.11.02-.14.02h-.13s-.12.02-.12.02h-.14s-.19-.01-.19-.01h-.2s-.19-.02-.19-.02h-.19c-.13-.02-.25-.03-.38-.04h-.19s-.2-.01-.2-.01c-9.81-.01-19.63-.01-29.46-.03-1.4-.01-2.79-.12-4.17-.13-.62,0-.78-.24-.73-.8.27-3.87,2.76-7.12,6.66-7.72.14-.02.29-.03.42-.05.22-.03.36-.04.5-.06.2-.02.33-.03.46-.04.19-.02.33-.03.47-.04h.1c.14-.01.27-.02.4-.03.18-.01.32-.01.45-.02.21-.01.35-.01.48-.01h.1c.13-.01.27-.01.39-.01C162.45,0,162.59,0,162.73,0h.1c.14,0,.27,0,.39,0h.65s.15,0,.15,0Z"/>
    </g>
  </g>
  <g>
    <path class="cls-4" d="M128.31,18.08c.13,0,.27.01.39.02.15,0,.28.01.4.02.29.02.54.04.8.08.17.02.29.03.41.05.15.02.28.04.4.07.13.02.26.04.38.07.29.06.53.12.78.18.17.05.29.08.4.12.17.04.29.08.4.12.13.04.25.08.36.12l.06.03c.12.03.23.07.35.12.15.05.26.1.36.14.17.06.28.11.39.16l.06.02c.12.05.23.1.34.15.57.24.73.5.59,1.15-.28,1.27-.42,2.59-.64,4.01-1.89-1.05-3.79-1.7-5.8-1.97l-.15-.02-.15-.02-.15-.02h-.15s-.14-.02-.14-.02h-.06s-.08-.01-.08-.01h-.15s-.16-.01-.16-.01h-.12s-.06,0-.06,0h-.07s-.06.01-.06.01h-.06s-.07.01-.07.01h-.06s-.07.01-.07.01l-.13.02-.15.02-.18.04c-.59.16-1.14.48-1.12,1.19.03.65.52,1,1.09,1.18.89.28,1.82.5,2.73.76,1.32.38,2.66.79,3.79,1.66,1.82,1.4,2.27,3.7,1.27,6.17-.82,2.01-2.33,3.23-4.35,3.8-.11.03-.21.05-.32.08l-.07.02c-.11.02-.21.05-.32.07-.14.03-.24.05-.34.07h-.06s-.32.06-.32.06l-.34.05-.37.05h-.06s-.29.03-.29.03c-.15.02-.25.02-.36.03h-.07s-.31.02-.31.02h-.33s-.06,0-.06,0h-.32c-.12,0-.22,0-.32-.01h-.08c-.2-.01-.41-.02-.63-.04h-.07s-.29-.04-.29-.04c-.13-.01-.23-.02-.34-.04h-.07s-.28-.05-.28-.05c-.15-.02-.24-.04-.35-.06h-.07s-.27-.06-.27-.06c-.16-.03-.26-.05-.36-.08h-.06s-.27-.07-.27-.07l-.36-.1-.06-.02-.27-.07-.06-.02-.3-.1-.06-.02-.26-.08-.07-.02-.3-.11c-.14-.05-.22-.08-.31-.12l-.07-.03-.3-.12c-.14-.05-.22-.1-.31-.13l-.07-.03-.31-.14c-.11-.04-.2-.08-.3-.14l-.07-.03-.31-.14c-.49-.23-.52-.57-.44-1.01.22-1.23.48-2.46.63-3.69v-.07c.48-.31.57-.35.59-.35l.08.05.06.05c1.84,1.19,3.84,1.88,5.97,2.26l.13.02.12.02.12.02h.13s.12.02.12.02h.13s.12.01.12.01h.13c.13,0,.15,0,.17,0h.11s.12-.01.12-.01h.13s.12-.02.12-.02l.12-.02.14-.03c.68-.15,1.38-.36,1.42-1.25.05-.84-.6-1.14-1.22-1.35-1.01-.35-2.04-.59-3.07-.92-1.47-.47-2.97-.96-3.99-2.22-1.56-1.91-1.35-4.73.37-6.76,1.52-1.78,3.54-2.53,5.77-2.73l.24-.02h.13s.12-.01.12-.01h.15s.1-.01.1-.01h.16s.07-.01.07-.01h.58Z"/>
    <path class="cls-4" d="M115.81,22c2.01,3.07,1.87,6.35.57,9.56l-.11.28-.03.06-.11.27-.14.27-.03.06-.14.24-.15.25c-.07.13-.13.21-.18.29l-.16.24c-.08.13-.14.2-.19.27l-.18.23c-.09.12-.15.19-.21.25l-.18.22-.22.23-.2.21-.22.21-.22.2-.22.19c-.12.08-.18.14-.24.19l-.23.17c-.18.14-.33.24-.47.34-.13.07-.2.13-.27.17l-.23.13c-.13.07-.2.12-.27.16l-.24.13c-.13.06-.2.1-.27.14l-.25.11c-.13.05-.2.08-.29.12-.11.05-.18.07-.25.11-.13.04-.2.07-.29.1-.12.04-.19.06-.26.08-.13.04-.21.06-.29.1-.13.03-.2.05-.28.07-.12.03-.2.04-.29.06-.14.03-.21.05-.29.06-.12.02-.2.04-.29.05-.14.02-.21.04-.3.05l-.28.03c-.14.02-.22.03-.31.04l-.27.02c-.14.01-.22.01-.32.02h-.25c-.15.01-.23.01-.32.01h-.25s-.07-.01-.07-.01h-.24s-.27-.02-.27-.02l-.29-.02c-.12-.02-.2-.03-.29-.04l-.28-.03c-.14-.02-.21-.03-.3-.05-.13-.02-.19-.03-.27-.04-.14-.03-.22-.05-.31-.07-.11-.02-.18-.04-.24-.05l-.06-.02-.24-.06-.24-.07-.06-.02-.21-.07-.27-.1-.06-.02-.19-.07c-.12-.05-.19-.08-.27-.12-.13-.05-.18-.08-.25-.11-.13-.06-.2-.1-.28-.14-.11-.05-.17-.08-.22-.12l-.06-.03-.21-.13-.21-.13-.06-.03-.2-.14c-2.05-1.37-3.75-3.87-3.62-7.11-.25-4.8,2.96-9.57,7.86-10.74.12-.02.24-.05.36-.07.14-.03.24-.05.36-.07.15-.02.26-.04.37-.06.16-.02.27-.03.38-.04.15-.02.27-.03.37-.04.16-.01.27-.02.38-.03.16-.01.27-.01.38-.01.16-.01.27-.01.38-.01h.28c.14.01.22.01.31.01.14.01.21.01.3.02.13.01.21.01.3.02.14.02.21.02.3.03.12.02.2.03.29.04.14.02.22.03.31.05l.28.05c.14.02.22.04.31.06l.26.06c.22.05.39.11.56.16.13.04.21.07.3.11l.25.08c.13.05.21.08.29.12l.23.11c.13.06.2.1.29.14l.22.12c.13.06.2.11.27.15l.24.14c.11.07.18.12.26.17l.21.15.25.18.21.18.21.19.21.19.2.2.19.22.19.21c.09.12.14.18.19.24l.16.22c.09.13.14.2.18.28ZM111.53,27.32v-.03s-.01-.13-.01-.13v-.04s0-.11,0-.11v-.05s-.01-.11-.01-.11v-.05s-.02-.1-.02-.1v-.04s-.01-.11-.01-.11v-.07s-.02-.07-.02-.07v-.06s-.07-.22-.07-.22l-.02-.11v-.04c-.06-.18-.12-.36-.19-.54l-.07-.15-.02-.04-.04-.1-.03-.05-.04-.08-.03-.05-.04-.07-.03-.05-.04-.07-.03-.05-.05-.07-.03-.04-.06-.1-.11-.13-.03-.03-.06-.07-.03-.04-.06-.06-.04-.03-.05-.06-.04-.03-.06-.06-.04-.03-.06-.05-.04-.03-.07-.05-.03-.03-.11-.07-.11-.07-.04-.02-.07-.04-.04-.02-.07-.04-.05-.02-.06-.03-.05-.02-.07-.04h-.04s-.09-.04-.09-.04l-.04-.02-.11-.04-.14-.04h-.03s-.1-.03-.1-.03h-.04s-.09-.03-.09-.03h-.04s-.09-.03-.09-.03h-.05s-.09-.02-.09-.02h-.04s-.1-.02-.1-.02h-.03s-.12-.02-.12-.02h-.15s-.14-.01-.14-.01h-.04s-.09-.01-.09-.01h-.22s-.2.02-.2.02l-.21.02h-.03s-.18.04-.18.04l-.22.04-.19.04-.2.06h-.03s-.18.06-.18.06l-.19.08-.18.07-.03.02-.16.07-.03.02-.16.08-.17.11-.16.12-.03.02-.14.11-.17.14c-1.19,1.09-1.63,2.55-1.78,4.12-.24,2.73,1.35,4.67,4.01,4.73h.1s.11,0,.11,0h.08s.1-.01.1-.01h.1s.1-.02.1-.02h.07s.1-.02.1-.02h.08s.1-.03.1-.03h.07s.1-.03.1-.03l.07-.02.08-.02.08-.02.08-.03.07-.02.08-.03.07-.02.08-.03.07-.03.07-.03.07-.04.07-.03.06-.03.08-.04.06-.04.07-.04.06-.04.07-.04.06-.04.06-.04.06-.05.07-.04.05-.05.07-.05.05-.04.06-.06.05-.04.06-.06.06-.05.05-.05.05-.05.06-.06.04-.05.06-.06.04-.06.06-.06.04-.06.05-.06.04-.05.05-.07.04-.05.05-.08.03-.05.05-.07.04-.06.04-.07.04-.06.04-.07.03-.06.04-.08.03-.06.04-.07.03-.06.04-.08.03-.06.03-.08.03-.06.03-.08.03-.07.03-.08.02-.06.03-.08.02-.06.03-.1v-.05s.04-.1.04-.1l.02-.06.02-.1.02-.07.02-.08.02-.07v-.08s.03-.05.03-.05v-.11s.02-.04.02-.04l.02-.12v-.05s.02-.11.02-.11v-.04s.02-.12.02-.12v-.04s.02-.12.02-.12v-.04s0-.12,0-.12v-.04s0-.11,0-.11v-.06s0-.1,0-.1v-.06s0-.1,0-.1"/>
    <path class="cls-4" d="M97.25,7.87c.43.65.42.68.42.71-.73,4.19-1.37,8.42-2.06,12.62-.56,3.39-1.07,6.77-1.55,10.17-.26,1.84-.58,3.64-.84,5.47l-.02.11c-1.05.66-1.19.65-1.33.65h-.13s-.29-.01-.29-.01h-.15s-.27,0-.27,0h-.15s-.16,0-.16,0h-.37s-.17,0-.17,0h-.41c-.12.01-.24.01-.36.01h-.2c-.17,0-.34,0-.5,0q-1.25,0-1.23-1.25l-.14.12-.15.11-.15.11-.16.1-.15.1-.16.1-.16.08-.17.1-.19.1-.16.07-.15.06-.16.07-.16.06-.16.05-.17.05-.17.05-.19.06-.17.04-.16.03-.16.04-.17.03-.16.02-.16.02-.17.02-.17.02c-.15.01-.25.02-.36.02h-.16s-.15,0-.15,0h-.11c-.11,0-.15,0-.18,0-.12-.01-.18-.01-.23-.01l-.17-.02-.18-.02-.17-.02-.17-.02-.17-.03-.16-.03-.18-.04-.17-.04-.19-.05-.19-.06-.16-.05-.16-.05-.16-.06-.15-.06-.16-.07-.15-.07-.15-.07-.16-.08-.18-.11-.15-.08-.14-.1-.14-.1-.14-.1-.13-.1-.13-.11-.13-.11-.13-.11-.13-.12-.16-.16c-1.34-1.37-2.05-3.06-2.26-4.9-.4-3.62.51-6.91,2.99-9.54l.19-.19c.1-.11.17-.16.22-.21l.21-.19.21-.2.22-.18.21-.17.23-.18.21-.16c.12-.07.18-.12.24-.16l.21-.14c.12-.08.19-.12.25-.16l.21-.13c.13-.06.19-.11.25-.14l.22-.11c.13-.07.2-.11.26-.14l.21-.1c.14-.05.2-.08.26-.11l.23-.08c.13-.05.19-.07.25-.1.11-.03.17-.05.24-.08.13-.03.19-.05.24-.06.12-.04.19-.05.26-.07.13-.03.19-.04.24-.06.13-.02.2-.04.28-.05.13-.03.18-.04.24-.05.13-.02.2-.03.28-.04.13-.02.19-.02.24-.03.14-.02.22-.02.3-.03.12-.01.18-.01.24-.02.14-.01.21-.01.3-.02h.24c.14-.01.22-.01.3-.01h.19s.2.01.2.01h.19s.19.01.19.01c.12.01.16.01.2.02.11.01.15.01.19.01.12.01.16.02.2.02.11.01.15.02.19.02.12.02.16.02.2.03.12.01.16.02.2.03.12.01.16.02.2.03.12.01.16.02.19.03.13.02.17.03.2.03.13.03.17.03.21.04.13.03.17.04.22.05.12.02.19.04.26.05,1.04-.64,1.05-.67,1.05-.7.44-3.09.99-6.16,1.48-9.23v-.1c.98-.5,1.38-.56,1.72-.56.05,0,.09,0,.13,0h2.21c.37-.01.74-.01,1.11-.02h.13ZM89.4,24.32c.06-.37.02-.68-.39-.85l-.14-.06h-.04s-.12-.05-.12-.05l-.03-.02-.14-.05h-.04s-.11-.05-.11-.05h-.04s-.14-.06-.14-.06l-.15-.04h-.04s-.13-.05-.13-.05l-.16-.04h-.04s-.12-.04-.12-.04h-.03s-.15-.03-.15-.03l-.15-.03h-.03s-.15-.03-.15-.03l-.15-.02h-.04s-.13-.01-.13-.01h-.17s-.03-.01-.03-.01h-.13s-.13,0-.13,0h-.04s-.13,0-.13,0h-.13s-.04.02-.04.02h-.08s-.05.01-.05.01h-.08s-.05.02-.05.02l-.08.02h-.04s-.1.03-.1.03h-.04s-.13.04-.13.04c-2.58.74-4.11,2.97-4.05,5.91v.14s0,.04,0,.04v.1s0,.05,0,.05v.08s0,.05,0,.05v.07s0,.05,0,.05v.08s.01.05.01.05v.07s.01.05.01.05v.06s.01.06.01.06v.06s.02.05.02.05v.06s.01.05.01.05l.02.07v.05s.02.06.02.06v.04s.02.07.02.07v.04s.03.06.03.06v.04s.03.07.03.07v.04s.03.06.03.06v.04s.04.1.04.1l.09.21.04.1v.03s.04.06.04.06l.02.03.03.06.02.03.02.05.02.03.03.05.02.03.03.06.02.03.04.04.02.03.03.05.02.03.04.04.02.03.04.05.02.03.04.04.02.03.04.04.02.02.04.05.02.02.05.05.09.07.15.13.07.05.03.02.04.03.03.02.04.03.03.02.05.03.03.02.04.03.03.02.05.02.03.02.04.02.04.02.04.02.04.02.04.02.03.02h.05s.03.03.03.03l.05.02h.04s.04.03.04.03h.04s.04.03.04.03h.04s.04.02.04.02l.04.02h.05s.03.02.03.02l.1.02.09.02h.04s.04.02.04.02h.04s.05.01.05.01h.04s.04.02.04.02h.05s.04.01.04.01h.04s.04.01.04.01h.1s.04,0,.04,0h.04s.05.01.05.01h.1s.18,0,.18,0h.17c1.51-.15,2.95-1.13,3.14-2.28.37-2.22.69-4.44,1.05-6.64"/>
    <path class="cls-4" d="M72.82,9c1.72.04,3.16,1.46,3.2,3.21.05,2-1.41,3.44-3.48,3.44-1.88,0-3.18-1.29-3.21-3.21v-.17s0-.07,0-.07v-.1s0-.07,0-.07v-.1s.03-.07.03-.07v-.08s.03-.07.03-.07l.02-.08.02-.08.02-.07.03-.08.03-.07.03-.08.03-.07.04-.08.02-.06.05-.1.03-.05.05-.08.03-.05.06-.1.03-.04.06-.1.03-.04.07-.1.03-.04.07-.08.04-.03.08-.1.03-.03.08-.08.03-.03.09-.07.03-.03.09-.07.04-.03.09-.07.04-.02.11-.07.03-.02.11-.06.04-.02.11-.06h.04s.12-.06.12-.06l.03-.02.12-.05h.04s.12-.05.12-.05h.04s.13-.05.13-.05h.04s.12-.04.12-.04h.04s.13-.03.13-.03h.04s.12-.02.12-.02h.05s.12-.02.12-.02h.05s.12-.01.12-.01h.11Z"/>
    <path class="cls-4" d="M69.83,18.45h.16s.21.03.21.03h.05s.16.01.16.01h.07s.14.02.14.02h.07s.14.01.14.01h.07s.14,0,.14,0h.08s.14.01.14.01h.07s.18,0,.18,0c.2,0,.36,0,.52-.01.19,0,.34,0,.5-.01h.05c.15-.01.3-.01.46-.02.19,0,.35-.01.51-.02h.08s.08,0,.08,0c.62.82.62.84.61.86-.64,3.76-1.21,7.52-1.81,11.28-.32,2-.65,4-.92,6.02l-.02.11-.02.11-.02.1-.03.1-.03.1-.04.07-.04.07-.04.07-.05.06-.06.05-.06.04-.07.04-.08.03-.1.02-.11.02h-.11s-.11,0-.11,0h-.12s-.17-.03-.17-.03h-.05s-.13-.01-.13-.01h-.05s-.12,0-.12,0h-.05s-.12,0-.12,0h-.31c-.12,0-.2,0-.3.01h-.22s-.18,0-.18,0h-.08s-.19,0-.19,0h-.57c-.18-.01-.37-.01-.56-.01-.37,0-.75.01-1.12.02h-.07c-.48-.49-.48-.51-.48-.52l.02-.13c.44-2.56.82-5.13,1.23-7.67.51-3.18,1.06-6.35,1.51-9.54l.02-.08v-.08s.03-.07.03-.07c.11-.4.12-.42.12-.44l.03-.06c.81-.54.83-.55.84-.55h.1c.12,0,.16,0,.21,0Z"/>
    <path class="cls-4" d="M64.09,23.32c1.77,5.76-.93,12.86-7.52,14.38l-.31.07c-.14.02-.23.04-.34.06-.14.02-.23.04-.33.05-.15.02-.24.03-.35.04-.14.02-.24.03-.34.04-.13.01-.22.02-.33.02-.12.01-.22.01-.32.02h-.34s-.17,0-.17,0h-.19c-.12-.01-.16-.01-.2-.01-.12-.01-.16-.01-.2-.01-.19-.02-.32-.03-.45-.04l-.19-.02c-.11-.02-.15-.02-.19-.03-.12-.02-.15-.02-.19-.03-.11-.02-.15-.02-.19-.03-.12-.02-.15-.03-.19-.03-.12-.03-.15-.04-.18-.04-.13-.03-.16-.04-.19-.05-.13-.02-.16-.03-.2-.04-.12-.03-.16-.04-.2-.06-.12-.03-.18-.05-.24-.07-.76,0-.8.02-.82.04-.75,3.93-1.32,7.12-1.82,10.34l-.02.12-.03.11-.03.1c-.72.54-.75.54-.77.54h-.11s-.15,0-.15,0c-.17-.01-.34-.01-.51-.01h-.19s-.32-.01-.32-.01h-.22s-.28,0-.28,0h-.25s-.16,0-.16,0h-.47s-.17,0-.17,0h-.41s-.16,0-.16,0c-.18,0-.36,0-.55.01h-.55c-.41,0-.61-.03-.51-.57.46-2.65.84-5.3,1.27-7.95.79-4.81,1.58-9.63,2.37-14.43.36-2.17.7-4.33,1.03-6.49l.02-.11c.72-.74.76-.74.79-.74h.12s.13,0,.13,0c.15.01.3.01.44.02h.15s.29.01.29.01h.18s.27,0,.27,0h.18s.13,0,.13,0h.11s.3,0,.3,0h.19s.31,0,.31,0h.19c.12-.01.22-.01.34-.01.2,0,.41-.01.62-.01h.14s.14-.01.14-.01c.6,1.15.59,1.18.58,1.22,1.41-1.06,2.78-1.57,4.33-1.58h.21s.17,0,.17,0h.15s.17.02.17.02h.16s.16.02.16.02l.15.02h.16s.15.04.15.04l.16.02.15.02.15.03.15.03.15.04.14.03.15.04.14.04.15.04.13.05.15.05.13.04.14.06.12.05.15.06.12.06.13.06.13.07.13.06.12.07.13.08.11.07.13.08.1.07.13.1.1.07.12.1.11.1.11.1.1.1.11.11.1.11.11.11.09.11.1.11.09.12.1.12.09.12.09.12.09.13.08.13.09.13.08.13.08.14.07.13.08.16.06.12.08.17.05.12.07.17.05.13.07.17.04.14.1.31ZM58.81,27.96c.15-1.7-.15-3.3-1.69-4.36l-.14-.1-.04-.02-.1-.06-.05-.02-.09-.05-.06-.03-.09-.04-.05-.02-.09-.04-.05-.02-.09-.03-.06-.02-.09-.03-.05-.02-.09-.02-.05-.02-.1-.02h-.05s-.1-.03-.1-.03h-.04s-.29-.05-.29-.05h-.04s-.1-.01-.1-.01h-.05s-.08-.01-.08-.01h-.12s-.12,0-.12,0h-.06s-.1.01-.1.01h-.05s-.12.01-.12.01h-.04s-.31.05-.31.05h-.04s-.12.03-.12.03h-.04s-.11.04-.11.04h-.05s-.11.04-.11.04h-.05s-.1.04-.1.04l-.06.02-.1.03-.06.02-.08.03-.06.03-.1.03-.06.02-.08.04-.06.03-.1.04-.06.02-.11.05-.04.02-.15.07c-.3.15-.47.37-.53.72-.34,2.22-.74,4.44-1.04,6.64-.23,1.72-.17,1.71,1.49,2.13.43.12.86.11,1.31.14,1.08,0,2.09-.27,2.97-.92,1.47-1.08,2.03-2.64,2.19-4.37"/>
    <path class="cls-4" d="M37.6,9.35h.18s.32.03.32.03h.07s.32.02.32.02c.13.01.22.01.33.01h.06c.12,0,.22,0,.33,0h.05s.22,0,.22,0h.08s.2,0,.2,0h.1s.25-.01.25-.01h.38s.2-.01.2-.01h.12s.19,0,.19,0h.13s.2,0,.2,0h.11c.11-.01.21-.01.32-.01-1.8,2.05-3.43,3.88-5.04,5.74l-.05.06-.02.02-.04.04-.03.02-.03.04-.03.02-.04.03-.03.02-.03.02-.03.02-.04.02-.03.02-.03.02h-.03s-.04.03-.04.03h-.03s-.04.03-.04.03h-.03s-.04.02-.04.02h-.04s-.04.02-.04.02h-.07s-.04.02-.04.02h-.08s-.04.01-.04.01h-.1s-.04.01-.04.01h-.07s-.28-.01-.28-.01h-.05s-.28-.01-.28-.01h-.03s-.27,0-.27,0h-.03s-.29-.01-.29-.01h-.05s-.17.01-.17.01h-.05c-.25,0-.52,0-.8,0h-.13s-.07,0-.07,0h-.17s-.08,0-.08,0h-.17s-.08,0-.08,0h-.25c1.17-1.78,2.26-3.35,3.22-5.02l.08-.14.09-.15.09-.14.1-.13.1-.12.11-.1.11-.1.13-.08.12-.07.13-.06.13-.05.14-.04.15-.03.16-.02.15-.02h.17s.17,0,.17,0Z"/>
    <path class="cls-4" d="M42.26,19.9c.66.24.9.55.72,1.34-.34,1.52-.43,3.09-.78,4.62-.39,1.78-.47,3.62-.81,5.41-.36,1.83-.61,3.69-.86,5.55l-.02.1c-.84.69-.87.69-.91.69-.13-.01-.25-.01-.39-.01h-.13s-.28-.01-.28-.01h-.15s-.27,0-.27,0h-.14s-.15,0-.15,0h-.36s-.17,0-.17,0h-.4c-.12,0-.23,0-.35,0h-.19c-.17.01-.33.01-.5.01q-1.27,0-1.33-1.31l-.14.1-.14.11-.15.1-.14.1-.06.03-.07.05-.06.04-.07.04-.07.04-.07.04-.06.04-.07.04-.07.03-.07.04-.06.04-.07.03-.07.03-.07.04-.07.03-.07.03-.06.03-.07.03-.07.03-.07.03-.07.03-.07.03-.07.03-.07.02-.07.03-.07.02-.07.02-.07.03-.07.02-.07.02-.08.02-.07.02-.07.02-.07.02h-.07s-.08.03-.08.03l-.07.02h-.07s-.08.03-.08.03h-.07s-.07.02-.07.02h-.08s-.07.02-.07.02h-.08s-.07.02-.07.02h-.08s-.07.02-.07.02h-.08s-.08.01-.08.01h-.07s-.08.01-.08.01h-.08s-.07.01-.07.01h-.08s-.08,0-.08,0h-.15c-2.94-.06-5.6-1.85-6.6-4.68-1.05-2.97-.7-5.78.47-8.74l.08-.21.03-.06.06-.14.03-.08.06-.13.04-.07.06-.13.04-.07.07-.14.03-.06.09-.17.14-.21.11-.19.04-.06.08-.12.05-.07.07-.12.05-.06.09-.12.04-.06.1-.14.17-.2.15-.17.05-.05.09-.11.05-.05.1-.12.05-.05.1-.11.05-.04.13-.12c.15-.14.25-.23.37-.33l.17-.15.05-.04.13-.1.05-.04.13-.08.05-.04.14-.1c.17-.13.29-.2.42-.29l.18-.12.06-.04.13-.07.07-.03.13-.07.06-.04.15-.07c.11-.06.17-.1.23-.13l.22-.11.2-.1.06-.02.14-.06.07-.03.14-.05.07-.03.14-.05.07-.03.16-.05c.13-.05.2-.07.26-.1l.22-.07.06-.02.15-.04.07-.02.14-.04.08-.02.14-.03.08-.02.15-.04h.07s.22-.06.22-.06l.21-.04h.08s.15-.04.15-.04h.08s.14-.04.14-.04h.08s.14-.03.14-.03h.1s.14-.03.14-.03h.08s.19-.02.19-.02c.11-.02.19-.02.27-.03h.07s.15-.01.15-.01h.1s.14-.01.14-.01h.1s.13-.01.13-.01h.1s.14,0,.14,0h.1s.1-.01.1-.01h.16s.11.01.11.01h.16s.11.01.11.01h.15s.11.01.11.01h.15s.11.02.11.02h.16s.11.02.11.02l.16.02h.1s.17.03.17.03h.09s.26.05.26.05c2,.34,3.9.93,5.79,1.66ZM36.7,24.19c.05-.33.04-.64-.35-.76-.12-.04-.22-.08-.34-.12l-.2-.06c-.37-.12-.76-.2-1.13-.27-.21-.04-.44-.06-.66-.07-.11-.01-.21-.01-.33-.01-.16,0-.32.01-.49.02-.11.01-.21.02-.32.04l-.3.06c-.17.04-.34.08-.51.15l-.16.06-.32.15-.16.08-.31.19c-2.07,1.33-2.62,3.41-2.68,5.56.2,1.4.42,2.56,1.57,3.38l.14.1.04.03.11.06.05.02.14.07.16.07.04.02.11.04.05.02.14.04.17.04h.05s.12.04.12.04h.04s.14.03.14.03l.18.02h.05s.12.01.12.01h.05s.13.01.13.01h.03s.16,0,.16,0h.03s.16-.01.16-.01l.17-.02.18-.02.18-.04.17-.03h.03s.16-.05.16-.05l.16-.05h.03s.15-.06.15-.06l.17-.06.16-.07h.03s.14-.07.14-.07l.15-.08h.03s.13-.1.13-.1h.03s.14-.1.14-.1l.14-.1.02-.02.13-.08.13-.11.14-.12.03-.02.12-.12c.11-.1.16-.27.18-.4.4-2.43.79-4.86,1.18-7.3"/>
    <path class="cls-4" d="M16.95,25.39c-.85.33-.92.66-.53,1.43,1.66,3.3,3.25,6.66,4.9,9.96-.49.82-.52.82-.54.82-.85-.01-1.7-.02-2.55-.02s-1.69.01-2.54.02c-1.11-.66-1.12-.69-1.14-.72-1.37-3.15-2.82-6.28-4.15-9.46l-.07-.13-.05-.12-.06-.12-.06-.11-.08-.1-.08-.08-.08-.07-.08-.06-.1-.05-.09-.05-.11-.04-.11-.03-.11-.02h-.12s-.13-.02-.13-.02h-.14s-.1,0-.1,0c-1.78.05-1.8.01-2.08,1.71-.48,2.9-.98,5.8-1.36,8.69-.11.71-.37.79-.95.79-.19,0-.38-.01-.58-.01h-.12c-.15-.01-.3-.01-.45-.01h-.19c-.14-.01-.27-.01-.39-.01h-.2c-.13,0-.25,0-.38,0h-.14s-.1,0-.1,0h-.21s-.29,0-.29,0h-.2c-.11,0-.22.01-.33.01h-.17c-.16.01-.32.01-.49.02-.51-3.18-.14-5.36.2-7.55.73-4.52,1.45-9.05,2.15-13.58.35-2.17.7-4.32,1.02-6.46l.02-.1c2-.48,3.22-.48,4.44-.48.32,0,.63,0,.94-.01h.94c.15,0,.27,0,.37,0,.19,0,.31,0,.44.01h.39c.17,0,.3.01.41.01.19,0,.31.01.42.01.15,0,.27.01.39.01.19.01.32.02.45.02.13.01.24.02.36.03.2.01.32.02.44.03.16.01.27.02.38.03.19.02.31.03.43.05.18.02.28.03.38.05.18.02.3.04.41.05.19.03.3.05.41.07.15.03.28.05.39.07l.09.02c.12.03.23.05.35.08,2.93.69,5.17,2.31,5.82,5.42.95,4.5-1.51,8.5-5.38,9.97ZM13.48,21.68c1.94-.45,2.99-1.78,2.92-3.77-.05-1.62-1.09-2.75-2.97-2.98-1.33-.17-2.68-.15-4.03-.21h-.14s-.03.01-.03.01h-.03s-.05.02-.05.02l-.08.05-.06.04-.04.03-.03.04-.02.04-.03.05-.02.05-.02.05v.03s0,.04,0,.04l-.02.08c-.3,2.02-.61,4.01-.94,6.02l-.02.08v.06s0,.03,0,.03v.03s0,.03,0,.03v.03s0,.05,0,.05l.02.05c.17.16.18.16.19.17h.05s.05.02.05.02h.1s.06,0,.06,0h2.07c.14,0,.28,0,.41,0h.39c.12,0,.22,0,.33,0h.05s.13,0,.13,0h.05s.17-.01.17-.01h.03s.14,0,.14,0h.06s.13-.01.13-.01h.04s.17-.02.17-.02h.04s.14-.02.14-.02h.05s.15-.02.15-.02l.19-.03h.05s.13-.02.13-.02h.05s.17-.05.17-.05"/>
  </g>
  <g>
    <path class="cls-4" d="M160.7,55.21c-.16.06-.26.07-.34.12-2.24,1.25-3.83-.13-3.93-2.38-.06-1.5.42-2.94,1.3-4.18.94-1.33,2.9-1.85,4.38-.39.27-.04.25-.32.38-.47.25-.3.59-.22.88-.14.33.09.25.42.2.65-.55,2.65-1.01,5.33-1.72,7.94-.68,2.5-3.12,2.77-5.1,2.2-.25-.07-.68-.15-.43-.64.19-.36.27-.69.88-.5,2.03.63,3.42-.25,3.5-2.2ZM157.85,52.43c.05.61-.06,1.11.3,1.57.46.59,1.07.72,1.7.54.77-.22,1.28-.81,1.46-1.6.18-.8.23-1.63.47-2.41.22-.73.04-1.26-.56-1.63-.66-.4-1.33-.33-1.93.16-1.11.9-1.3,2.18-1.42,3.37Z"/>
    <path class="cls-4" d="M121.34,47.52c.55-.05,1.09.08,1.53.51.36.34.5.24.58-.23.16-1,.38-1.98.57-2.97.08-.43.21-.78.78-.74.48.03.74.02.6.69-.67,3.11-1.26,6.24-1.88,9.37-.06.28-.09.56-.15.84-.13.6-.77.75-.99.49-.5-.59-.81-.16-1.2.02-1.79.83-3.47-.15-3.55-2.31-.07-1.77.34-3.53,1.7-4.87.54-.53,1.19-.83,2.01-.77ZM119.02,52.41c0,.26,0,.32,0,.39,0,.83.23,1.53,1.12,1.75.9.22,1.88-.34,2.15-1.28.25-.88.34-1.8.58-2.68.21-.77.15-1.39-.62-1.76-.79-.38-1.47-.19-2.06.44-.87.94-1.05,2.13-1.18,3.13Z"/>
    <path class="cls-4" d="M209.73,47.52c.53-.04,1.02.06,1.41.43.39.36.59.42.68-.23.14-.97.38-1.92.56-2.88.09-.49.27-.8.86-.77.49.03.68.12.57.67-.69,3.31-1.34,6.62-2.02,9.93-.21,1.01-.47,1.11-1.33.49-.25-.18-.33,0-.46.08-.97.56-2.01.79-2.95.1-.96-.71-1.16-1.78-1-2.98.19-1.47.5-2.87,1.56-3.98.57-.6,1.27-.93,2.13-.86ZM207.39,52.43c-.01,1.66.71,2.41,1.92,2.12.84-.2,1.31-.85,1.49-1.68.17-.77.23-1.57.45-2.32.23-.75.13-1.32-.58-1.68-.73-.38-1.41-.27-2,.31-.97.96-1.15,2.21-1.28,3.25Z"/>
    <path class="cls-4" d="M88.38,50.97c-.17,1.17-.35,2.63-1.4,3.76-1.04,1.12-2.39,1.36-3.69.57-.62-.37-.73-.17-.82.4-.12.78-.3,1.55-.42,2.32-.11.67-.54.81-1.1.68-.64-.15-.25-.59-.19-.91.58-3.01,1.17-6.01,1.75-9.01.25-1.26.32-1.3,1.5-.68.21.11.28-.04.4-.1,2.42-1.13,3.98-.07,3.97,2.96ZM84.63,54.59c.64.07,1.19-.27,1.58-.86.63-.95.82-2.06.81-3.16,0-1.11-.65-1.84-1.48-1.91-.92-.07-1.7.6-1.95,1.68-.2.86-.38,1.72-.54,2.58-.21,1.15.27,1.67,1.58,1.66Z"/>
    <path class="cls-4" d="M181.18,44.85c.44,0,.89,0,1.33,0,2.33.02,3.47,1.74,2.64,3.93-.65,1.7-1.94,2.41-3.66,2.52-.32.02-.63,0-.95,0q-1.77,0-2.08,1.79c-.11.65-.28,1.29-.38,1.95-.1.66-.59.46-.95.45-.49-.02-.4-.42-.34-.71.59-3,1.22-5.99,1.78-8.99.14-.75.44-1.04,1.19-.95.47.05.95.01,1.42.01ZM180.86,50.18c1.26.15,2.43-.2,3-1.66.48-1.24-.03-2.42-1.14-2.49-.9-.06-1.93-.32-2.69.14-.59.35-.33,1.35-.57,2.02-.04.12-.04.25-.06.37q-.37,1.62,1.46,1.62Z"/>
    <path class="cls-4" d="M140.33,55.7c-1.7.24-3.42-1.52-3.33-3.38.09-1.99.44-3.96,1.49-5.72,1.27-2.14,4.4-2.56,5.94-.83.51.57.74,1.22.72,2-.01.49-.17.67-.67.67-.47,0-.67-.13-.69-.64-.03-.89-.46-1.55-1.35-1.86-.9-.32-1.58.02-2.22.63-1.32,1.26-1.42,2.98-1.75,4.61-.1.48-.17.98-.06,1.5.19.89.48,1.66,1.47,1.89,1.1.25,2.02-.16,2.59-1.12.16-.27.27-.58.43-.84.25-.41.68-.36,1.02-.24.46.16.19.52.09.8-.54,1.61-1.92,2.55-3.7,2.55Z"/>
    <path class="cls-4" d="M168.08,54.79c-.51.04-.78.4-1.14.58-1.11.58-2.39.43-2.94-.36-.57-.83-.18-2.58.72-3.27.91-.7,1.96-.81,3.06-.8.38,0,.91.21,1.09-.3.18-.5.26-1.09-.05-1.56-.31-.47-.87-.5-1.38-.39-.5.11-.97.34-1.27.78-.35.52-.95.48-1.24.23-.39-.33.07-.75.33-1.02,1.03-1.07,2.3-1.41,3.73-1.02,1.07.29,1.62,1.26,1.42,2.35-.31,1.67-.79,3.31-.92,5.02-.04.52-.38.45-.73.51-.64.12-.72-.26-.68-.74ZM167.68,51.88c-.95.01-1.81.25-2.35,1.12-.23.36-.31.78-.1,1.17.21.38.59.41.99.4.86-.03,1.51-.45,1.99-1.1.26-.37.42-.88.3-1.34-.11-.4-.54-.16-.83-.24Z"/>
    <path class="cls-4" d="M149.26,54.6c-.87.7-1.71,1.23-2.81,1.1-.9-.1-1.45-.62-1.5-1.52-.12-1.83,1.07-3.08,3.07-3.22.35-.02.7,0,1.05-.01.95,0,1.23-.26,1.18-1.22-.04-.72-.51-1.05-1.21-1.08-.64-.03-1.18.23-1.59.7-.16.19-.26.46-.57.44-.3-.02-.69.16-.89-.13-.19-.28.12-.52.27-.75.83-1.27,3-1.81,4.34-1.1.79.43,1.17,1.27.97,2.37-.31,1.64-.78,3.25-.92,4.92-.04.49-.4.37-.7.42-.7.13-.6-.44-.69-.92ZM148.81,51.89c-1.15,0-2,.44-2.38,1.22-.41.85-.05,1.44.88,1.45.94,0,2.01-.71,2.29-1.53.3-.89.13-1.14-.8-1.14Z"/>
    <path class="cls-4" d="M64.31,54.59c-.89.76-1.75,1.24-2.85,1.11-.85-.1-1.38-.63-1.45-1.48-.14-1.84,1.01-3.08,3.03-3.26.35-.03.7-.01,1.05-.02,1,0,1.24-.24,1.2-1.18-.03-.73-.55-1.16-1.36-1.12-.56.03-1.04.27-1.41.68-.08.09-.13.23-.22.31-.37.27-.86.28-1.16.07-.31-.21.06-.56.21-.81.74-1.25,3.08-1.84,4.33-1.07.69.43,1.11,1.06.98,1.92-.27,1.81-.8,3.57-.96,5.4-.04.49-.44.33-.73.37-.67.1-.54-.44-.66-.93ZM63.58,51.89c-.7.05-1.64.25-2.12,1.29-.37.81,0,1.37.88,1.39,1.01.02,2.02-.69,2.3-1.62.29-.94.21-1.05-1.07-1.06Z"/>
    <path class="cls-4" d="M217.6,47.51c1.85,0,2.68,1,2.33,2.82-.3,1.58-.62,3.16-.91,4.74-.06.31-.17.48-.47.45-.31-.04-.76.21-.85-.33-.1-.61-.34-.36-.61-.14-.4.32-.84.58-1.35.65-1.14.17-2.1-.29-2.37-1.13-.32-.95.32-2.47,1.28-3.04.91-.53,1.92-.68,2.94-.57.91.1.97-.51,1.04-1.1.08-.67-.28-1.09-.94-1.19-.59-.1-1.14.05-1.57.49-.18.18-.33.41-.54.53-.37.2-.87.26-1.16-.01-.21-.21.13-.57.31-.82.71-.99,1.72-1.33,2.88-1.35ZM215.74,54.56c1.36,0,2.25-.81,2.39-2.14.02-.22.14-.4-.19-.51-1.01-.34-2.65.31-3.08,1.25-.42.9-.1,1.4.88,1.4Z"/>
    <path class="cls-4" d="M202.87,47.51c1.94,0,2.74.99,2.41,2.89-.27,1.55-.62,3.09-.92,4.64-.05.29-.12.51-.45.47-.31-.04-.77.21-.86-.31-.1-.59-.33-.39-.61-.16-.4.33-.84.6-1.35.65-.87.08-1.74.06-2.22-.88-.4-.78-.18-2.02.49-2.74.98-1.06,2.27-1.18,3.59-1.1.73.05.94-.31,1.02-.92.08-.56-.08-1.06-.6-1.27-.69-.29-1.36-.15-1.93.39-.26.24-.38.71-.87.64-.26-.04-.61.14-.75-.22-.11-.26.05-.49.22-.69.77-.93,1.73-1.47,2.83-1.38ZM202.59,51.9c-1.31,0-2.22.56-2.49,1.51-.18.63.03,1.06.71,1.15.99.12,1.79-.3,2.39-1.05.32-.4.39-.97.29-1.42-.08-.37-.61-.11-.89-.18Z"/>
    <path class="cls-4" d="M188.55,52.05c-.25,0-.52-.05-.76.01-.47.14-1.32-.47-1.33.64,0,1.07.56,1.81,1.45,1.88.64.05,1.26-.05,1.84-.33.26-.13.54-.41.76.09.2.44,0,.63-.35.82-1.18.64-2.44.85-3.63.22-1.22-.65-1.53-1.88-1.41-3.19.15-1.62.65-3.09,2.06-4.09,1.11-.79,2.6-.84,3.45-.13.88.74,1.23,2.46.77,3.6-.11.27-.29.27-.5.32-.78.18-1.57.14-2.36.14ZM188.39,50.92c.25,0,.51,0,.76,0,1.09,0,1.48-.69.94-1.64-.33-.59-.88-.68-1.47-.62-.67.07-1.92,1.39-1.72,1.93.26.69.99.19,1.48.34Z"/>
    <path class="cls-4" d="M91.71,55.7c-1.44,0-2.52-.88-2.69-2.39-.2-1.72.17-3.35,1.4-4.66,1.04-1.11,2.51-1.46,3.71-.92,1.1.5,1.81,1.79,1.64,3.26-.15,1.32-.46,2.61-1.44,3.63-.73.76-1.57,1.14-2.62,1.08ZM90.29,52.32c0,1.28.36,2.03.97,2.23.84.28,1.78-.1,2.36-.97.66-.99.78-2.12.73-3.26-.03-.72-.29-1.41-1.07-1.63-.81-.23-1.49.1-2,.76-.7.91-.91,1.99-1,2.87Z"/>
    <path class="cls-4" d="M112.37,50.24c0,.22,0,.44,0,.67,0,.68-.25,1.04-1.02,1-1.04-.05-2.09.02-3.14-.02-.61-.02-.84.17-.84.8,0,1.75,1.03,2.19,2.72,1.78.15-.04.28-.14.43-.19.26-.09.54-.46.8,0,.21.38.03.65-.28.89-.85.65-2.85.73-3.8.14-.91-.56-1.43-1.97-1.26-3.17.24-1.68.71-3.22,2.28-4.16,1-.6,2.03-.7,3.06-.11.92.52,1.09,1.41,1.04,2.38ZM109.33,50.93c.38,0,.76-.02,1.13,0,.49.03.69-.25.73-.67.11-.98-.75-1.78-1.71-1.6-.71.13-1.81,1.26-1.66,1.85.23.87,1.01.24,1.51.42Z"/>
    <path class="cls-4" d="M128.92,51.9c-.41,0-.83-.02-1.23,0-.51.04-1.21-.26-1.23.71-.03,1.06.42,1.87,1.23,1.96.73.08,1.45.02,2.12-.35.28-.15.5-.22.68.16.16.34.04.49-.23.69-.91.68-2.79.87-3.71.35-1.52-.86-1.53-2.3-1.37-3.74.15-1.35.7-2.54,1.8-3.44.91-.74,2.42-.98,3.38-.46.87.47,1.19,1.62,1.14,2.9-.04,1.09-.49,1.35-1.44,1.22-.37-.05-.76,0-1.14,0ZM128.85,48.65c-.69,0-1.9,1.11-1.98,1.79-.05.4.18.49.51.49.76,0,1.51,0,2.27,0,.32,0,.53-.12.62-.46.23-.88-.5-1.83-1.41-1.82Z"/>
    <path class="cls-4" d="M74.09,49.62c-.28,1.77-.65,3.65-1.12,5.52-.15.61-.67.38-1.02.34-.48-.05-.21-.41-.16-.66.3-1.58.6-3.16.89-4.74.17-.93-.28-1.45-1.22-1.43-1.06.03-1.91.74-2.12,1.79-.31,1.51-.66,3.02-.92,4.54-.11.64-.5.54-.9.54-.57,0-.48-.43-.42-.75.42-2.2.88-4.39,1.31-6.59.06-.29.17-.49.48-.46.28.03.73-.2.79.26.1.69.38.29.6.14.57-.38,1.16-.62,1.86-.6,1.21.03,1.94.75,1.96,2.11Z"/>
    <path class="cls-4" d="M194.58,55.7c-1.48,0-2.35-.58-2.65-1.66-.08-.3-.27-.7.19-.77.38-.06.88-.3,1.16.27.5,1.01,1.3,1.33,2.28.94.52-.21.8-.6.81-1.17.01-.54-.36-.79-.79-.95-.53-.2-1.1-.31-1.61-.54-1.46-.65-1.74-1.56-.94-2.96.86-1.51,3.58-1.86,4.72-.61.24.27.43.56.47.91.04.29.17.71-.27.78-.39.06-.85.25-1.12-.36-.48-1.06-1.52-1.26-2.35-.52-.69.62-.61,1.35.24,1.73.57.25,1.19.4,1.79.61.78.28,1.33.83,1.31,1.67-.03.84-.4,1.59-1.17,2.06-.66.4-1.38.64-2.08.56Z"/>
    <path class="cls-4" d="M77.33,55.69c-.98.1-1.76-.2-2.38-.96-.32-.39-.33-.82-.24-1.25.07-.34.4-.21.64-.25.53-.09.57.3.72.66.21.51.66.73,1.23.71.61-.02,1.23,0,1.59-.62.35-.62.29-1.18-.4-1.51-.39-.19-.84-.26-1.25-.41-.85-.31-1.74-.65-1.89-1.66-.15-.96.41-1.69,1.13-2.27,1.43-1.15,3.88-.69,4.4.8.28.8-.01,1.16-.8,1.08-.33-.03-.37-.22-.48-.47-.4-.9-1.27-1.17-2.1-.68-.42.25-.75.58-.71,1.14.04.59.49.8.95.92.52.14,1.03.29,1.53.5.73.3,1.29.75,1.29,1.58,0,.9-.33,1.67-1.16,2.14-.64.37-1.3.67-2.04.54Z"/>
    <path class="cls-4" d="M54.8,44.85c1.05,0,2.09-.01,3.14,0,.23,0,.67-.19.61.31-.04.36.02.87-.64.83-.66-.04-1.33,0-1.99-.03-.5-.03-.76.17-.85.66-.5,2.59-1.02,5.19-1.54,7.78-.05.25-.11.49-.18.73-.18.6-.68.36-1.03.32-.44-.05-.26-.41-.2-.68.54-2.66,1.06-5.31,1.62-7.96.14-.63.09-.94-.66-.87-.56.06-1.14.02-1.71,0-.25,0-.67.12-.6-.35.05-.33.03-.79.62-.78,1.14.02,2.28,0,3.42,0Z"/>
    <path class="cls-4" d="M102.1,53.66c.23-1.19.51-2.73.83-4.27.09-.44.17-.75-.43-.74-.23,0-.57.08-.52-.33.03-.27.11-.62.48-.6.79.06.98-.38,1-1.04,0-.15.11-.3.13-.45.08-.64.55-.63,1-.56.54.08.38.53.31.83-.15.65-.41,1.29.69,1.23.29-.02.31.25.31.48,0,.33-.2.49-.49.43-1.01-.19-1.1.5-1.23,1.21-.21,1.18-.49,2.34-.71,3.52-.11.62-.18,1.27.79,1.21.29-.02.48.06.5.41.02.34-.14.52-.44.64-1.31.52-2.23-.14-2.22-1.96Z"/>
    <path class="cls-4" d="M154.7,48.48c.49-.47.94-.77,1.46-.91.3-.08.82-.24.89.18.07.4,0,.96-.64,1.09-1.87.39-1.95.49-2.31,2.31-.25,1.27-.57,2.52-.75,3.8-.1.71-.55.58-.97.55-.56-.04-.41-.5-.35-.8.42-2.17.88-4.33,1.29-6.49.08-.41.27-.49.64-.52.51-.04.73.19.74.8Z"/>
    <path class="cls-4" d="M56.44,55.51c-.45.06-.7-.12-.61-.58.44-2.29.9-4.58,1.35-6.87.05-.28.24-.37.48-.35.26.02.69-.15.75.19.15.84.43.26.69.11.27-.16.55-.35.85-.42.33-.07.88-.29.94.21.04.37-.02,1.02-.71,1.04-1.63.04-1.97.8-2.25,2.17-.26,1.3-.55,2.59-.76,3.9-.08.5-.27.67-.73.61Z"/>
    <path class="cls-4" d="M98.9,48.41c.55-.31.9-.8,1.45-.85.31-.03.88-.31.9.28.02.39-.05,1.01-.75,1-.22,0-.46-.04-.66.03-.68.24-1.22.62-1.38,1.41-.3,1.54-.66,3.08-.93,4.63-.11.63-.5.66-.97.6-.56-.07-.39-.53-.33-.82.39-2.07.81-4.14,1.24-6.21.07-.34.03-.76.61-.78.53-.02.82.13.82.72Z"/>
  </g>
</svg>