<?xml version="1.0" encoding="UTF-8"?>
<svg id="Capa_2" data-name="Capa 2" xmlns="http://www.w3.org/2000/svg" viewBox="0 0 50 50">
  <defs>
    <style>
      .cls-1, .cls-2 {
        stroke: #000;
      }

      .cls-1, .cls-2, .cls-3 {
        fill: none;
      }

      .cls-1, .cls-3 {
        stroke-linecap: round;
        stroke-linejoin: round;
      }

      .cls-2 {
        stroke-miterlimit: 10;
      }

      .cls-3 {
        stroke: #1d1d1b;
      }
    </style>
  </defs>
  <g id="g2489">
    <path id="path2491" class="cls-1" d="M33.38,43.99l-2.54-6.52"/>
  </g>
  <g id="g2493">
    <path id="path2495" class="cls-1" d="M19.16,37.48l-2.54,6.52"/>
  </g>
  <path id="path2497" class="cls-2" d="M8.06,25.74h33.89v2.98H8.06v-2.98Z"/>
  <g id="g2501">
    <g id="g2507">
      <path id="path2509" class="cls-3" d="M41.4,37.48h4.64c1.03,0,1.86-.83,1.86-1.86V4.89c0-1.03-.83-1.86-1.86-1.86H3.96c-1.03,0-1.86.83-1.86,1.86v30.72c0,1.03.83,1.86,1.86,1.86h34.22"/>
    </g>
    <g id="g2511">
      <path id="path2513" class="cls-3" d="M11.27,6.01h32.91c.41,0,.74.33.74.74v24.21c0,.41-.33.74-.74.74H5.82c-.41,0-.74-.33-.74-.74V6.75c0-.41.33-.74.74-.74h2.22"/>
    </g>
    <g id="g2515">
      <path id="path2517" class="cls-3" d="M21.88,43.99h14.29v2.98H13.83v-2.98h4.83"/>
    </g>
    <g id="g2519">
      <path id="path2521" class="cls-3" d="M17.27,17.72c-1.07,0-1.94-.87-1.94-1.94s.87-1.94,1.94-1.94,1.94.87,1.94,1.94-.87,1.94-1.94,1.94ZM24.07,16.75v-1.94l-2.18-.52c-.08-.25-.18-.49-.3-.73l1.17-1.91-1.37-1.37-1.91,1.17c-.23-.12-.47-.22-.73-.3l-.52-2.18h-1.94l-.52,2.18c-.25.08-.49.18-.73.3l-1.91-1.17-1.37,1.37,1.17,1.91c-.12.23-.22.47-.3.73l-2.18.52v1.94l2.18.52c.08.25.18.49.3.73l-1.17,1.91,1.37,1.37,1.91-1.17c.23.12.47.22.73.3l.52,2.18h1.94l.52-2.18c.25-.08.49-.18.73-.3l1.91,1.17,1.37-1.37-1.17-1.91c.12-.23.22-.47.3-.73l2.18-.52Z"/>
    </g>
    <g id="g2523">
      <path id="path2525" class="cls-3" d="M27.39,16.23h2.88"/>
    </g>
    <g id="g2527">
      <path id="path2529" class="cls-3" d="M33.44,16.23h7.14"/>
    </g>
    <g id="g2531">
      <path id="path2533" class="cls-3" d="M30.26,17.02v-1.59c0-.44.36-.79.79-.79h1.59c.44,0,.79.36.79.79v1.59c0,.44-.36.79-.79.79h-1.59c-.44,0-.79-.36-.79-.79Z"/>
    </g>
    <g id="g2535">
      <path id="path2537" class="cls-3" d="M27.39,20.99h8.14"/>
    </g>
    <g id="g2539">
      <path id="path2541" class="cls-3" d="M38.7,20.99h1.89"/>
    </g>
    <g id="g2543">
      <path id="path2545" class="cls-3" d="M35.52,21.79v-1.59c0-.44.36-.79.79-.79h1.59c.44,0,.79.36.79.79v1.59c0,.44-.36.79-.79.79h-1.59c-.44,0-.79-.36-.79-.79Z"/>
    </g>
    <g id="g2547">
      <path id="path2549" class="cls-3" d="M27.39,10.57h6.15"/>
    </g>
    <g id="g2551">
      <path id="path2553" class="cls-3" d="M36.71,10.57h3.87"/>
    </g>
    <g id="g2555">
      <path id="path2557" class="cls-3" d="M33.54,9.78v1.59c0,.44.36.79.79.79h1.59c.44,0,.79-.36.79-.79v-1.59c0-.44-.36-.79-.79-.79h-1.59c-.44,0-.79.36-.79.79Z"/>
    </g>
  </g>
</svg>