<?xml version="1.0" encoding="UTF-8"?>
<svg id="Capa_2" data-name="Capa 2" xmlns="http://www.w3.org/2000/svg" viewBox="0 0 50 50">
  <defs>
    <style>
      .cls-1 {
        fill: none;
        stroke: #000;
        stroke-linecap: round;
        stroke-linejoin: round;
      }
    </style>
  </defs>
  <polygon class="cls-1" points="42.48 3.52 42.68 42.13 14.72 41.93 14.52 3.72 42.48 3.52"/>
  <path class="cls-1" d="M14.52,3.92C12.12-.25,6.31.27,5.07,4.93l-.2,38.62c.79-2.67,2.42-4.08,4.43-4.71,2.74-.08,4.29.77,5.42,3.31l-.2-38.21Z"/>
  <path class="cls-1" d="M4.87,43.54c.11,2.48,1.56,3.9,4.42,5.03l28.96.2.2-6.64-23.93-.2c-.49-2.48-3.76-3.45-5.62-3.02-1.53.35-3.86,1.97-4.03,4.63Z"/>
  <rect class="cls-1" x="19.35" y="9.75" width="5.83" height="6.64"/>
  <rect class="cls-1" x="19.15" y="19.61" width="5.83" height="6.64"/>
  <rect class="cls-1" x="19.15" y="29.46" width="5.83" height="6.64"/>
  <line class="cls-1" x1="29" y1="11.36" x2="38.25" y2="11.36"/>
  <line class="cls-1" x1="29" y1="14.98" x2="38.25" y2="14.98"/>
  <line class="cls-1" x1="29" y1="21.22" x2="38.25" y2="21.22"/>
  <line class="cls-1" x1="29" y1="24.84" x2="38.25" y2="24.84"/>
  <line class="cls-1" x1="29" y1="30.87" x2="38.25" y2="30.87"/>
  <line class="cls-1" x1="29" y1="34.49" x2="38.25" y2="34.49"/>
</svg>