<?xml version="1.0" encoding="UTF-8"?>
<svg id="Capa_2" data-name="Capa 2" xmlns="http://www.w3.org/2000/svg" xmlns:xlink="http://www.w3.org/1999/xlink" viewBox="0 0 50 50">
  <defs>
    <style>
      .cls-1, .cls-2 {
        fill: none;
      }

      .cls-2 {
        stroke: #000;
        stroke-linecap: round;
        stroke-linejoin: round;
      }

      .cls-3 {
        clip-path: url(#clippath);
      }
    </style>
    <clipPath id="clippath">
      <rect class="cls-1" width="50" height="50"/>
    </clipPath>
  </defs>
  <g id="g2544">
    <g id="g2546">
      <g class="cls-3">
        <g id="g2548">
          <g id="g2554">
            <path id="path2556" class="cls-2" d="M37.96,8.83c2.87,5.5,1.99,12.45-2.63,17.07-5.7,5.7-14.95,5.7-20.66,0-5.71-5.7-5.71-14.95,0-20.65C19.29.63,26.25-.25,31.76,2.63"/>
          </g>
          <g id="g2558">
            <path id="path2560" class="cls-2" d="M35.33,5.25h0"/>
          </g>
          <g id="g2562">
            <path id="path2564" class="cls-2" d="M16.17,27.21c0-3.57,2.14-6.65,5.2-8.04M28.62,19.17c3.06,1.39,5.21,4.48,5.21,8.04"/>
          </g>
          <g id="g2566">
            <path id="path2568" class="cls-2" d="M25,8.9c3.19,0,5.77,2.59,5.77,5.77s-2.58,5.77-5.77,5.77-5.78-2.59-5.78-5.77,2.59-5.77,5.78-5.77Z"/>
          </g>
          <g id="g2570">
            <path id="path2572" class="cls-2" d="M25,33.88l-2.55,4.86-5.42.92,3.84,3.93-.8,5.43,4.92-2.44,4.92,2.44-.8-5.43,3.84-3.93-5.41-.92-2.55-4.86Z"/>
          </g>
          <g id="g2574">
            <path id="path2576" class="cls-2" d="M9.11,28.26l-1.84,3.51-3.91.66,2.77,2.83-.58,3.92,3.55-1.76,3.55,1.76-.58-3.92,2.77-2.83-3.91-.66-1.84-3.51Z"/>
          </g>
          <g id="g2578">
            <path id="path2580" class="cls-2" d="M40.89,28.26l-1.84,3.51-3.91.66,2.77,2.83-.58,3.92,3.55-1.76,3.55,1.76-.58-3.92,2.77-2.83-3.91-.66-1.84-3.51Z"/>
          </g>
        </g>
      </g>
    </g>
  </g>
</svg>