<?xml version="1.0" encoding="UTF-8"?>
<svg id="Capa_2" data-name="Capa 2" xmlns="http://www.w3.org/2000/svg" xmlns:xlink="http://www.w3.org/1999/xlink" viewBox="0 0 50 50">
  <defs>
    <style>
      .cls-1, .cls-2 {
        fill: none;
      }

      .cls-2 {
        stroke: #000;
        stroke-linecap: round;
        stroke-linejoin: round;
      }

      .cls-3 {
        clip-path: url(#clippath);
      }
    </style>
    <clipPath id="clippath">
      <rect class="cls-1" x=".61" y=".61" width="48.78" height="48.78"/>
    </clipPath>
  </defs>
  <g id="g1329">
    <g id="g1331">
      <g class="cls-3">
        <g id="g1333">
          <g id="g1339">
            <path id="path1341" class="cls-2" d="M29.79,15.48c0,1.06.87,1.91,1.93,1.91h1.05c1.06-.01,1.92-.88,1.91-1.94h0c0-.62-.29-1.18-.78-1.54l-3.34-2.47c-.49-.36-.78-.93-.78-1.54h0c0-1.06.86-1.92,1.92-1.92h1.05c1.06,0,1.92.86,1.92,1.92"/>
          </g>
          <g id="g1343">
            <path id="path1345" class="cls-2" d="M32.23,7.97v-1.37"/>
          </g>
          <g id="g1347">
            <path id="path1349" class="cls-2" d="M32.23,18.76v-1.37"/>
          </g>
          <g id="g1351">
            <path id="path1353" class="cls-2" d="M42.87,12.68c0,5.87-4.76,10.64-10.64,10.64s-10.64-4.76-10.64-10.64,4.76-10.64,10.64-10.64,10.64,4.76,10.64,10.64Z"/>
          </g>
          <g id="g1355">
            <path id="path1357" class="cls-2" d="M6.81,47.96l-4.77-13.95,7.88-2.69,4.77,13.95-7.88,2.69Z"/>
          </g>
          <g id="g1359">
            <path id="path1361" class="cls-2" d="M35.73,32.96l7.14-4.78c.56-.39,1.21-.58,1.85-.58.97,0,1.92.43,2.56,1.25,1.13,1.45.82,3.55-.68,4.62l-9.43,6.71c-2.52,1.8-5.55,2.76-8.64,2.76l-14.47.45"/>
          </g>
          <g id="g1363">
            <path id="path1365" class="cls-2" d="M24.62,35.8h8.06c.84,0,1.6-.34,2.16-.89.55-.55.89-1.31.89-2.15,0-1.68-1.36-3.05-3.05-3.05h-4.47"/>
          </g>
          <g id="g1367">
            <path id="path1369" class="cls-2" d="M13.28,31.97c1.5-3.05,4.63-5.15,8.25-5.15,2.63,0,5.01,1.11,6.68,2.88"/>
          </g>
          <g id="g1371">
            <path id="path1373" class="cls-2" d="M13.28,31.97l-2.59,1.58"/>
          </g>
        </g>
      </g>
    </g>
  </g>
</svg>