<?xml version="1.0" encoding="UTF-8"?>
<svg id="Capa_2" data-name="Capa 2" xmlns="http://www.w3.org/2000/svg" viewBox="0 0 50 50">
  <defs>
    <style>
      .cls-1 {
        fill: none;
        stroke: #000;
        stroke-linecap: round;
        stroke-linejoin: round;
      }
    </style>
  </defs>
  <line class="cls-1" x1="29.11" y1="35.51" x2="30.39" y2="35.51"/>
  <path class="cls-1" d="M29.78,25.85c-.26,0-.46.21-.46.47v6.16c0,.26.21.47.47.47h7.23c.26,0,.47-.21.47-.47v-.85c0-.12-.05-.24-.13-.32-.73-.76-4.36-4.53-5.12-5.32-.09-.09-.21-.14-.34-.14-.44,0-1.5,0-2.11.01Z"/>
  <line class="cls-1" x1="1.19" y1="37.23" x2="26.74" y2="37.23"/>
  <path class="cls-1" d="M26.96,23.27h5.57c.14,0,.28.06.38.17,1.05,1.14,7.15,7.78,7.15,7.78v10.95c0,.28-.11.56-.31.76-.2.2-.47.31-.76.31h-2.79"/>
  <line class="cls-1" x1="10.85" y1="43.46" x2="12.14" y2="43.46"/>
  <path class="cls-1" d="M3.77,43.25h-1.54c-.69,0-1.26-.56-1.26-1.26v-21.11c0-.69.56-1.25,1.26-1.25h23.26c.69,0,1.26.56,1.26,1.25v22.37h-7.95"/>
  <circle class="cls-1" cx="7.31" cy="43.35" r="3.33"/>
  <circle class="cls-1" cx="15.47" cy="43.35" r="3.33"/>
  <circle class="cls-1" cx="32.86" cy="43.35" r="3.33"/>
  <line class="cls-1" x1="8.49" y1="28.64" x2="14.01" y2="23.12"/>
  <line class="cls-1" x1="13.64" y1="33.58" x2="19.17" y2="28.06"/>
  <line class="cls-1" x1="8.49" y1="33.8" x2="19.38" y2="22.91"/>
  <line class="cls-1" x1="26.53" y1="43.25" x2="29.53" y2="43.25"/>
  <path class="cls-1" d="M44.57,30.58h-2.15c-.11,0-.22.04-.3.12-.08.08-.12.19-.12.3v2.16c0,.11.04.22.12.3.08.08.19.12.3.12h2.15"/>
  <path class="cls-1" d="M5.48,19.41v-5.6c0-.28.11-.55.31-.75.2-.2.47-.31.75-.31h23.65c.58,0,1.06.47,1.06,1.06v9.03-6.27h6c.15,0,.28.06.38.17.94,1.03,5.91,6.48,6.8,7.45.09.09.13.22.13.35v11.31c0,.28-.23.52-.52.52h-3.99"/>
  <path class="cls-1" d="M33.61,23.92v-4.49c0-.12.05-.23.13-.32.08-.08.2-.13.32-.13h2.37c.12,0,.24.05.33.14.75.8,4.41,4.76,5.12,5.53.08.08.12.19.12.3v.67c0,.12-.05.23-.13.32-.08.08-.2.13-.32.13h-6"/>
  <path class="cls-1" d="M49.29,23.7h-2.15c-.11,0-.22.04-.3.12-.08.08-.12.19-.12.3v2.16c0,.11.04.22.12.3.08.08.19.12.3.12h2.15"/>
  <path class="cls-1" d="M10.21,12.54v-5.6c0-.28.11-.55.31-.75.2-.2.47-.31.75-.31h23.65c.58,0,1.06.47,1.06,1.06v9.03-6.27h6c.15,0,.28.06.38.17.94,1.03,5.91,6.48,6.8,7.45.09.09.13.22.13.35v11.31c0,.28-.23.52-.52.52h-3.99"/>
  <path class="cls-1" d="M38.34,17.05v-4.49c0-.12.05-.23.13-.32.08-.08.2-.13.32-.13h2.37c.12,0,.24.05.33.14.75.8,4.41,4.76,5.12,5.53.08.08.12.19.12.3v.67c0,.12-.05.23-.13.32-.08.08-.2.13-.32.13h-6"/>
</svg>