<?xml version="1.0" encoding="UTF-8"?>
<svg id="Capa_2" data-name="Capa 2" xmlns="http://www.w3.org/2000/svg" xmlns:xlink="http://www.w3.org/1999/xlink" viewBox="0 0 50 50">
  <defs>
    <style>
      .cls-1, .cls-2 {
        fill: none;
      }

      .cls-2 {
        stroke: #000;
        stroke-linecap: round;
        stroke-linejoin: round;
      }

      .cls-3 {
        clip-path: url(#clippath);
      }
    </style>
    <clipPath id="clippath">
      <rect class="cls-1" x="0" y=".19" width="49.75" height="49.75"/>
    </clipPath>
  </defs>
  <g id="g78">
    <g id="g80">
      <g class="cls-3">
        <g id="g82">
          <g id="g88">
            <path id="path90" class="cls-2" d="M48.01,19.25l-19.88,13.16c-1.79,1.19-4.71,1.19-6.5,0L1.76,19.25"/>
          </g>
          <g id="g92">
            <path id="path94" class="cls-2" d="M10.05,13.24L1.46,18.96v22.64c0,2.15,1.76,3.9,3.9,3.9h39.03c2.15,0,3.9-1.76,3.9-3.9v-22.64l-8.59-5.73"/>
          </g>
          <g id="g96">
            <path id="path98" class="cls-2" d="M38.94,12.72l-10.8-7.2c-1.79-1.19-4.71-1.19-6.5,0l-10.8,7.2"/>
          </g>
          <g id="g100">
            <path id="path102" class="cls-2" d="M10.05,24.17v-11.45h29.66v11.45"/>
          </g>
          <g id="g104">
            <path id="path106" class="cls-2" d="M17.86,12.72c0,4.31-3.5,7.81-7.81,7.81"/>
          </g>
          <g id="g108">
            <path id="path110" class="cls-2" d="M39.72,20.52c-4.31,0-7.81-3.5-7.81-7.81"/>
          </g>
          <g id="g112">
            <path id="path114" class="cls-2" d="M28.01,23.65c0,1.72-1.4,3.12-3.12,3.12s-3.12-1.4-3.12-3.12,1.4-3.12,3.12-3.12,3.12,1.4,3.12,3.12Z"/>
          </g>
        </g>
      </g>
    </g>
  </g>
</svg>