<?xml version="1.0" encoding="UTF-8"?>
<svg id="Capa_2" data-name="Capa 2" xmlns="http://www.w3.org/2000/svg" viewBox="0 0 50 50">
  <defs>
    <style>
      .cls-1 {
        fill: none;
        stroke: #000;
        stroke-linecap: round;
        stroke-linejoin: round;
      }
    </style>
  </defs>
  <path class="cls-1" d="M12.81,28.04s-3.74-10.44,7.72-15.98c5.88-2.84,11.82-.74,14.67,2.2,2.31,2.38,6.04,8.11,3.17,15.03-4.7,11.33-16.3,8.02-16.3,8.02"/>
  <path class="cls-1" d="M12.81,28.04s-1.16,1.16-2.1,2.1c-.25.25-.61.35-.96.27-.34-.08-.62-.34-.73-.67-.09-.28-.19-.56-.27-.8-.14-.42-.53-.7-.97-.7h-3.58c-.55,0-1.01-.44-1.02-.99-.04-1.43-.11-4.03-.15-5.43-.01-.53.38-.98.9-1.04,1.09-.13,2.86-.33,3.78-.44.37-.04.69-.28.83-.63.43-1.05,1.35-3.32,1.79-4.39.14-.35.08-.75-.16-1.04-.56-.67-1.59-1.89-2.26-2.68-.35-.41-.31-1.02.07-1.39,1.03-.99,2.95-2.84,3.96-3.81.38-.36.96-.38,1.36-.05.74.61,1.87,1.56,2.5,2.09.29.24.69.3,1.04.16,1.05-.43,3.3-1.35,4.37-1.78.36-.15.6-.48.63-.86.07-.89.2-2.51.28-3.54.04-.53.49-.94,1.02-.94h5.47c.53,0,.98.41,1.02.94.08,1.05.22,2.72.29,3.59.03.36.24.67.56.83.99.5,3.16,1.58,4.21,2.1.36.18.79.13,1.1-.12.76-.62,2.2-1.78,3.07-2.48.41-.33,1-.3,1.37.07l3.61,3.61c.37.37.4.95.08,1.36-.67.84-1.77,2.21-2.33,2.92-.23.28-.29.67-.16,1.01.39,1.01,1.21,3.15,1.61,4.19.14.36.46.61.84.65.97.11,2.84.31,3.97.44.53.06.92.51.91,1.04-.04,1.42-.11,4.1-.15,5.5-.01.52-.42.95-.94.99-.99.08-2.55.21-3.4.28-.37.03-.69.26-.84.59-.46.99-1.43,3.09-1.91,4.15-.17.38-.1.83.19,1.13.61.64,1.66,1.76,2.34,2.48.37.39.37,1,0,1.4-.98,1.06-2.83,3.06-3.81,4.12-.36.39-.97.44-1.39.1-.84-.67-2.17-1.74-2.88-2.3-.29-.23-.68-.29-1.02-.15-1.05.43-3.31,1.35-4.38,1.79-.36.15-.6.48-.63.86-.07.85-.2,2.39-.28,3.37-.04.52-.47.92-.99.94-1.4.04-4.05.11-5.48.15-.54.02-1-.4-1.05-.94-.08-1-.21-2.54-.28-3.37-.03-.36-.24-.67-.56-.83-.32-.16-.75-.38-1.16-.58-.28-.14-.49-.41-.55-.72-.06-.31.03-.63.24-.87.68-.77,1.6-1.81,2.19-2.48"/>
  <path class="cls-1" d="M29.64,16.11c-4.14-2.42-11.09,2.74-9.27,9.27,0,0-15.08,13.85-17.39,17.39-1.6,2.46,2.06,6.1,4.35,4.35,3.41-2.59,17.62-17.62,17.62-17.62"/>
  <path class="cls-1" d="M24.97,29.5c5.13,1.84,11.53-3.7,8.99-8.99l-3.86,3.86-3.18-1.03-1.02-3.27,3.82-3.82"/>
</svg>