<?xml version="1.0" encoding="UTF-8"?>
<svg id="Capa_2" data-name="Capa 2" xmlns="http://www.w3.org/2000/svg" xmlns:xlink="http://www.w3.org/1999/xlink" viewBox="0 0 50 50">
  <defs>
    <style>
      .cls-1, .cls-2 {
        fill: none;
      }

      .cls-2 {
        stroke: #000;
        stroke-linecap: round;
        stroke-linejoin: round;
      }

      .cls-3 {
        clip-path: url(#clippath);
      }
    </style>
    <clipPath id="clippath">
      <rect class="cls-1" x="-1.7" y="-1.25" width="52.61" height="52.61"/>
    </clipPath>
  </defs>
  <g class="cls-3">
    <polygon class="cls-2" points="46.15 34.19 3.04 34.4 3.04 6.84 46.15 6.84 46.15 34.19"/>
    <line class="cls-2" x1="8.22" y1="30.86" x2="8.22" y2="23.2"/>
    <line class="cls-2" x1="30.19" y1="23.21" x2="30.19" y2="19.69"/>
    <line class="cls-2" x1="33.92" y1="23.21" x2="33.92" y2="17.41"/>
    <line class="cls-2" x1="12.78" y1="30.86" x2="12.78" y2="18.64"/>
    <line class="cls-2" x1="17.55" y1="30.86" x2="17.55" y2="15.11"/>
    <line class="cls-2" x1="34.96" y1="43.52" x2="14.23" y2="43.52"/>
    <line class="cls-2" x1="21.28" y1="34.4" x2="21.28" y2="43.31"/>
    <line class="cls-2" x1="27.49" y1="34.4" x2="27.49" y2="43.31"/>
    <path class="cls-2" d="M26.07,22.01s-1.74-4.86,3.6-7.44c2.74-1.32,5.51-.34,6.83,1.03,1.07,1.11,2.81,3.78,1.48,7-2.19,5.28-7.59,3.74-7.59,3.74"/>
    <path class="cls-2" d="M26.07,22.01s-.3.3-.63.63c-.19.19-.47.27-.73.21-.26-.06-.48-.26-.56-.51.4,1.2.21.63.07.21-.09-.26-.33-.44-.61-.44h-1c-.56,0-1.02-.45-1.04-1.01-.01-.46-.03-1.01-.04-1.47-.01-.54.38-1,.92-1.06.31-.04.64-.07.92-.11.38-.04.7-.29.84-.64.17-.42.41-1,.58-1.42.15-.36.08-.76-.17-1.06-.15-.18-.33-.39-.49-.59-.35-.42-.32-1.04.07-1.41.35-.33.76-.73,1.11-1.06.38-.37.98-.39,1.38-.05.18.15.36.3.52.44.29.25.7.31,1.05.16.42-.17.98-.4,1.4-.57.36-.15.61-.49.64-.88.02-.24.04-.52.06-.79.04-.54.49-.95,1.03-.95h1.51c.54,0,.99.42,1.03.95.02.29.05.59.07.84.03.36.24.68.57.84.4.2.94.47,1.35.68.36.18.8.13,1.12-.12.23-.19.5-.41.75-.61.41-.33,1.01-.3,1.38.07.3.3.66.66.97.97.37.37.41.97.08,1.38-.19.24-.4.5-.57.72-.23.29-.29.68-.16,1.02.15.4.36.93.51,1.33.14.36.47.62.85.66.3.03.66.07,1,.11.54.06.94.52.92,1.06-.01.48-.03,1.07-.04,1.55-.01.53-.42.96-.95,1-.26.02-.53.04-.76.06-.37.03-.7.26-.86.6-.18.38-.41.89-.6,1.29-.18.38-.1.84.19,1.15.15.16.31.33.47.5.37.4.38,1.02,0,1.42-.33.36-.73.79-1.07,1.15-.37.4-.98.44-1.41.11-.23-.18-.47-.38-.68-.54-.29-.23-.69-.29-1.04-.15-.42.17-.99.4-1.42.58-.36.15-.61.48-.64.87-.02.23-.04.48-.06.73-.04.53-.48.94-1,.95-.47.01-1.04.03-1.52.04-.55.02-1.02-.4-1.06-.95-.03-.35-.06-.71-.08-.97-.02-.21-.14-.4-.33-.49,0,0,0,0,0,0-.25-.12-.42-.35-.47-.62-.05-.27.02-.55.2-.75.24-.27.49-.55.67-.76"/>
  </g>
</svg>