<?xml version="1.0" encoding="UTF-8"?>
<svg id="Capa_2" data-name="Capa 2" xmlns="http://www.w3.org/2000/svg" viewBox="0 0 50 50">
  <defs>
    <style>
      .cls-1 {
        fill: none;
        stroke: #000;
        stroke-linecap: round;
        stroke-linejoin: round;
      }
    </style>
  </defs>
  <path d="M39.95,31.14h-.49c-.39,0-.7.31-.7.7s.31.7.7.7c.18,0,.34.07.47.19.13.13.19.29.19.47,0,.37-.3.66-.66.66h-.49c-.39,0-.7.31-.7.7s.31.7.7.7c.18,0,.34.07.47.19.06.06.11.14.15.22,0,0,0,0,0,0,.03.08.05.16.05.24,0,.37-.3.66-.66.66h-7.42c-.31,0-.6-.08-.86-.23.03-.12.04-.24.04-.37v-8.51c0-.32.06-.63.19-.92.19-.43.5-.77.9-1.01.88-.52,1.58-1.29,2.03-2.24l.64-1.36c.18-.39.58-.64,1-.64.16,0,.32.04.47.1.55.26.79.92.53,1.47l-1.49,3.18c-.1.21-.09.46.03.66.01.02.02.03.02.04.13.2.35.32.59.32h3.83c.18,0,.34.07.47.19.13.12.19.29.19.47,0,.37-.3.66-.66.66-.39,0-.7.31-.7.7s.31.7.7.7h.46c.19,0,.37.08.5.21.13.13.19.29.19.46,0,.36-.3.65-.66.65ZM26.86,36.35c-.2,0-.37-.17-.37-.37v-8.49c0-.2.17-.37.37-.37h2.1c.2,0,.37.17.37.37v8.49c0,.2-.17.37-.37.37h-2.1ZM42.01,30.52c.01-.55-.2-1.07-.59-1.47-.07-.07-.14-.14-.22-.19.2-.32.32-.7.32-1.1,0-.55-.21-1.07-.6-1.46-.39-.39-.91-.6-1.46-.6h-2.75l1.04-2.21c.59-1.25.05-2.74-1.2-3.33-.34-.16-.69-.24-1.06-.24-.97,0-1.86.57-2.27,1.44l-.64,1.36c-.32.69-.83,1.25-1.47,1.63-.62.36-1.1.89-1.42,1.54-.22-.1-.47-.16-.73-.16h-2.1c-.97,0-1.76.79-1.76,1.77v8.49c0,.97.79,1.77,1.76,1.77h2.1c.33,0,.64-.09.91-.25.5.32,1.08.49,1.68.49h7.42c1.14,0,2.06-.92,2.06-2.06,0-.25-.05-.5-.14-.74,0,0,0-.01,0-.02-.05-.12-.1-.23-.17-.34.49-.38.8-.97.8-1.63,0-.39-.11-.77-.31-1.1.48-.37.79-.94.8-1.59Z"/>
  <path d="M23.01,10.1c0-1.42-.7-2.58-1.55-2.58s-1.55,1.16-1.55,2.58.7,2.58,1.55,2.58,1.55-1.16,1.55-2.58Z"/>
  <ellipse cx="11.66" cy="10.1" rx="1.55" ry="2.58"/>
  <path d="M16.56,19.29c2.51,0,4.75-1.49,5.73-3.8.15-.36-.02-.77-.37-.92-.36-.15-.77.02-.92.37-.76,1.79-2.5,2.95-4.44,2.95s-3.68-1.16-4.44-2.95c-.15-.36-.56-.52-.92-.37-.36.15-.52.56-.37.92.97,2.31,3.22,3.8,5.73,3.8Z"/>
  <path class="cls-1" d="M15.68,24.49c-.48-.01-.95.16-1.31.49-1.12,1.02-3.67,3.35-5.28,4.83-.26.24-.63.31-.96.17-.33-.13-.55-.44-.57-.79-.06-1.08-.14-2.41-.2-3.45-.06-.96-.83-1.71-1.78-1.75-.55-.02-1.16-.05-1.7-.07-.92-.04-1.67-.74-1.78-1.66-.65-6.03-.5-12.13.22-18.28.1-.87.79-1.55,1.66-1.64,8.4-.83,16.81-.8,25.23,0,.87.08,1.57.76,1.67,1.63.72,6.14.76,12.27,0,18.4-.11.86-.8,1.53-1.66,1.62-4.51.45-9.02.61-13.54.49Z"/>
  <path class="cls-1" d="M18.04,24.88c-.52,5.11-.12,9.7.75,14.02.16.78.82,1.36,1.62,1.41,4.65.32,8.88.73,13.36.4.54-.04,1.07.17,1.44.57.94,1.03,2.87,3.13,4.66,5.08.53.57,1.36.74,2.07.4.7-.33,1.11-1.08,1-1.86-.13-.91-.26-1.8-.36-2.54-.07-.5.07-1,.39-1.38.32-.39.79-.62,1.29-.64.5-.02,1.02-.04,1.48-.06.8-.03,1.47-.6,1.65-1.37,1.25-5.72,1.2-12.16.09-19.4-.12-.76-.71-1.35-1.46-1.48-5-.81-9.68-1.02-14.7-.61"/>
</svg>