<?xml version="1.0" encoding="UTF-8"?>
<svg id="Capa_2" data-name="Capa 2" xmlns="http://www.w3.org/2000/svg" viewBox="0 0 50 50">
  <defs>
    <style>
      .cls-1 {
        fill: none;
        stroke: #000;
        stroke-linecap: round;
        stroke-linejoin: round;
      }
    </style>
  </defs>
  <path class="cls-1" d="M8.89,20.84h-4.15c-1.04,0-2.03.41-2.76,1.14-.73.73-1.14,1.73-1.14,2.76v7.9c0,1.04.41,2.03,1.14,2.76.73.73,1.73,1.14,2.76,1.14h4.4s-.56-17.44,0-22.45c.3-2.75.33-4.52,3.34-7.58,3.23-3.29,8.11-4.95,11.93-5.21,3.82-.26,8.36,1.63,10.98,3.65,2.56,1.98,4.26,5.28,4.73,8.48.79,5.3,0,23.35,0,23.35-.41,5.45-3.85,7.61-9.88,6.96"/>
  <path class="cls-1" d="M40.78,35.43h3.7c2.05,0,3.71-1.66,3.71-3.71v-7.4c0-2.05-1.66-3.71-3.71-3.71h-3.7"/>
  <circle class="cls-1" cx="25.41" cy="43.18" r="4.83"/>
</svg>