<?xml version="1.0" encoding="UTF-8"?>
<svg id="Capa_2" data-name="Capa 2" xmlns="http://www.w3.org/2000/svg" xmlns:xlink="http://www.w3.org/1999/xlink" viewBox="0 0 50 50">
  <defs>
    <style>
      .cls-1, .cls-2 {
        fill: none;
      }

      .cls-2 {
        stroke: #000;
        stroke-linecap: round;
        stroke-linejoin: round;
      }

      .cls-3 {
        clip-path: url(#clippath);
      }
    </style>
    <clipPath id="clippath">
      <rect class="cls-1" width="50" height="50"/>
    </clipPath>
  </defs>
  <g id="g1491">
    <g id="g1493">
      <g class="cls-3">
        <g id="g1495">
          <g id="g1501">
            <path id="path1503" class="cls-2" d="M33.79,10.35v5.86c0,3.81-2.46,7.03-5.86,8.26v3.46c0,1.61-1.32,2.93-2.93,2.93s-2.93-1.32-2.93-2.93v-3.46c-3.4-1.23-5.86-4.45-5.86-8.26v-5.86h17.58Z"/>
          </g>
          <path id="path1505" class="cls-2" d="M16.21,36.72h17.58v11.82h-17.58v-11.82Z"/>
          <g id="g1507">
            <path id="path1509" class="cls-2" d="M33.79,10.35h-17.58v-3.03c0-3.24,2.62-5.86,5.86-5.86h5.86c3.24,0,5.86,2.62,5.86,5.86v3.03Z"/>
          </g>
          <g id="g1511">
            <path id="path1513" class="cls-2" d="M25,42.68v-5.96"/>
          </g>
          <g id="g1515">
            <path id="path1517" class="cls-2" d="M16.21,10.35c1.48,3.55,4.95,5.86,8.79,5.86s7.31-2.31,8.79-5.86"/>
          </g>
          <g id="g1519">
            <path id="path1521" class="cls-2" d="M22.07,27.93c-8.09,0-14.65,6.66-14.65,14.75v5.86h35.16v-5.86c0-8.12-6.56-14.75-14.65-14.75"/>
          </g>
        </g>
      </g>
    </g>
  </g>
</svg>