<?xml version="1.0" encoding="UTF-8"?>
<svg fill="#009B3A" id="Capa_3" data-name="Capa 3" xmlns="http://www.w3.org/2000/svg" viewBox="0 0 126.92 126.92">
  <g id="g20">
    <path id="path22" d="M3.77,96.74c2.43-3.57,54.76-79.03,56.12-81.17s3.63-4.15,6.15-.45,3.76,5.87,5.28,8.18c1.78,2.71-1.78,5.67-4.22,2.58-2.78-3.51-3.29-7.24-6.41-1.98-2.89,4.87-14.21,20.72-16.74,24.51-1.9,2.85-2.03,8.46-.72,12.71.98,3.16,2.78,5.38,3.81,6.66.88,1.09.43,2.5-.97,4.38-1.33,1.78-20.81,30.62-20.81,30.62H5.7c-4.18,0-4.13-2.79-1.93-6.04"/>
  </g>
  <g id="g24">
    <path id="path26" d="M30.32,102.77c.58-.19,42.42-61.42,45.14-65.5s6.92-1.52,4.46,2.68c-3.25,5.56-14.23,22.11-16.37,25.26-1.94,2.86-2.18,7.25-1.46,10.58.83,3.85,2.7,7.13,5.52,9.32l-12.11,17.66h-25.19Z"/>
  </g>
  <g id="g28">
    <path id="path30" d="M61.43,102.77c26.99-39.81,27.24-40.57,30.03-44.16,2.35-3.02,6.19-.45,4.23,2.76-1.99,3.26-14.61,21.64-16.41,24.38-2.14,3.26-1.59,11.45,4.22,11.4,6.24-.05,32.96-.22,32.96-.22,0,0-9.22-12.85-11.55-16.92-2.47-4.33,2.2-5.85,4.24-3.1,1.32,1.78,11.8,17.09,14.14,20.19,1.88,2.49,1,5.66-1.91,5.66h-59.95Z"/>
  </g>
</svg>
