<?xml version="1.0" encoding="UTF-8"?>
<svg id="Capa_2" data-name="Capa 2" xmlns="http://www.w3.org/2000/svg" viewBox="0 0 126.92 126.92">
  <defs>
    <style>
      .cls-1 {
        fill: #e1091d;
      }
    </style>
  </defs>
  <path class="cls-1" d="M121.31,64.28c-1.35-1.5-2.96-2.3-4.22-2.76-4.1-1.26-8.2-2.53-12.3-3.79,2.04-2.65,3.71-4.74,4.79-6.08,0,0,5.36-6.66,6.39-10.05.3-1,.48-2.01.48-2.01.1-.55.14-.95.16-1.09h0s0-1.8-.12-3.44c-.08-1.11-2.49-9.66-14.84-19.81-2.15-1.77-5.33-4.19-9.85-5.93-2.19-.84-5.02-1.66-7.5-1.06-2.78.67-4.54,2.43-4.54,2.43h0c-1.42,1.74-2.86,3.58-4.3,5.52-1.63,2.19-3.15,4.33-4.55,6.42-2.53-4.04-4.85-7.34-6.7-9.84-3.84-5.18-5.34-6.52-7.38-7.38-2.55-1.08-4.86-.96-7.24-.84-4.58.23-8.06,1.61-9.98,2.46-7.35,3.24-23.27,12.49-22.2,21.01.3,2.35,1.41,4.64,1.41,4.64.71,1.46.95,1.35,4.29,6.11.52.74,1.11,1.6,2.04,2.74.79.97,1.48,1.74,1.97,2.26-2.48.78-4.5,1.35-5.83,1.72-2.36.65-6.82,1.82-10.41,3.36-.58.25-1.67.74-2.86,1.68,0,0-1.12.88-2.06,2.07-2.32,2.95-3.06,7.45-3.18,8.23-.29,1.85-.62,5.13.12,10.66.51,3.79,1.07,8.02,3.29,13.13,1.85,4.27,4.81,11.08,10.14,12.07,1.32.24,2.63.1,3.83-.03,2.09-.23,3.5-.74,7.92-2.4,2.34-.88,4.22-1.6,5.39-2.05-.08,2.75-.11,5.06-.11,6.78-.02,5.74.15,7.75.25,8.75.14,1.38.44,3.84.75,5.02,1.76,6.77,13.94,10.63,22.67,11.54,3.26.34,19.6,2.04,23.54-5.52,1.56-3,1.47-8.04,1.35-13.84-.03-1.78-.14-3.25-.22-4.26,1.47.57,3.05,1.19,4.75,1.84,7.3,2.81,9.19,3.45,11.8,3.72.26.03,2.61.26,4.52.03,9.64-1.15,15.6-14.93,16.95-18.05,1.87-4.32,7.51-17.35,1.6-23.94ZM57.67,24.89c4.18-.95,11.08-1.89,11.83,0,.33.83-.71,1.75-2.07,3.78-2.19,3.27-3.21,6.46-3.74,8.79-.47-.78-1.27-1.87-2.58-2.61-6.19-3.52-15.49,5.28-19.71,1.67-.24-.21-.94-.8-1.05-1.71-.47-3.75,9.63-8.17,17.32-9.91ZM33.4,61.31c-.78,2.63-.22,3.98-.34,9.88-.02.91-.05,1.65-.07,2.1-.31,1.89-1.51,3.29-2.88,3.46-1.09.14-2-.54-2.22-.71-.61-.46-1.08-1.12-1.78-3.4-.66-2.14-.95-3.86-1.05-4.54-.15-.97-.41-2.61-.47-4.81-.09-3.02.23-5.3.31-5.88.35-2.38.89-4.12,1.3-5.43.51-1.64,1.29-3.76,2.48-6.16,3.38,3.19,6.77,6.37,10.15,9.56-.79.26-2.08.79-3.25,1.95-1.4,1.39-1.88,2.94-2.18,3.96ZM65.64,100.49c-1.8,3.18-11.6,1.32-17.96-1.39-2.88-1.22-7.21-3.54-11.6-8.07,4.08-2.23,8.15-4.45,12.23-6.68.12,1.29.49,3.34,1.89,5.17,4.23,5.49,13.4,3.19,15.38,8.07.12.3.71,1.75.06,2.9ZM76.41,81.25c-2.33-1.16-7.03-3.13-13.26-3.08-5.82.05-10.24,1.83-12.54,2.96.35-2.73.64-7.89-1.42-13.85-1.76-5.09-4.5-8.59-6.27-10.53,2.88-.67,7.89-2.23,12.9-6.15,4.04-3.17,6.52-6.64,7.93-8.99,1.32,2.25,3.42,5.22,6.63,8.05,5.19,4.57,10.64,6.43,13.73,7.22-1.75,2.07-4.12,5.38-5.8,9.94-2.24,6.08-2.16,11.43-1.89,14.44ZM91.9,90.41c-.76.88-7.75,8.87-10.18,7.45-1.31-.77-.22-3.66-1.73-9.95-.36-1.5-.76-2.74-1.07-3.63.64.27,1.91.73,3.45.6,7.19-.63,10.23-13.25,15.25-12.57.1.01,1.29.19,2.03,1.13,3.24,4.12-7.27,16.43-7.74,16.97ZM102.14,57.11c-.9.77-2.42-.49-7.15-1.25-2.71-.44-5.03-.48-6.73-.42.83-1.15,2.04-3.23,1.79-5.72-.09-.89-.37-1.76-1.43-3.57-3.24-5.55-5.98-6.56-6.31-10.01-.06-.62-.19-2.16.77-3.16.83-.86,2.08-.88,2.5-.89,4.5-.09,10.1,8.84,11.08,10.42,1.04,1.69,7.79,12.62,5.48,14.59Z"/>
</svg>