<?xml version="1.0" encoding="UTF-8"?>
<svg id="Capa_2" data-name="Capa 2" xmlns="http://www.w3.org/2000/svg" viewBox="0 0 126.92 126.92">
  <defs>
    <style>
      .cls-1 {
        fill: #e41c22;
      }
    </style>
  </defs>
  <g>
    <path class="cls-1" d="M55.39,60.99c-28.51.34-51.36,9.35-51.36,20.43,0,9.32,16.18,17.18,38.3,19.64l13.06-40.08Z"/>
    <path class="cls-1" d="M66.55,61.31l2.08,40.07c23.7-2.04,41.43-10.19,41.43-19.95s-18.77-18.39-43.51-20.11Z"/>
  </g>
  <path class="cls-1" d="M69.88,25.55c-29.28,0-53.02,7.82-53.02,17.46,0,8.03,16.48,14.79,38.91,16.83l9.23-28.33,1.5,28.92c1.12.02,2.24.04,3.37.04,29.28,0,53.02-7.82,53.02-17.46s-23.74-17.46-53.02-17.46Z"/>
</svg>