<?xml version="1.0" encoding="UTF-8"?>
<svg id="Capa_1" data-name="Capa 1" xmlns="http://www.w3.org/2000/svg" viewBox="0 0 126.92 126.92">
  <defs>
    <style>
      .cls-1 {
        fill: #004580;
      }
    </style>
  </defs>
  <path class="cls-1" d="M108.61,68.48c-3.18-4.09-7.39-7.44-12.29-9.21.65-1.08,2.02-1.44,2.91-2.3,3.68-2.66,6.15-6.65,7.86-10.78,1.43-3.53,1.88-7.37,2.11-11.14-.25-3.52-.52-7.12-1.75-10.47-2.78-8.82-10.19-15.75-18.79-18.84-5.11-1.91-10.63-2.73-16.07-2.55-18.52,0-37.03,0-55.55,0-1.84.05-4-.44-5.42,1.06h0s0,118.83,0,118.83c.41.54.89,1,1.41,1.42h62.69c1.55-.43,3.17-.32,4.75-.53,7.7-.89,15.5-3.04,21.8-7.72,2.89-2.06,5.26-4.77,7.19-7.74,2.89-4.76,4.48-10.25,4.94-15.78.89-8.39-.57-17.43-5.79-24.26ZM31.93,24.21c.03-.87-.13-1.86.46-2.58h0c.87-.53,1.9-.82,2.92-.82,9.82.02,19.65,0,29.48.01,1.63.02,3.27-.15,4.87.2,1.29.26,2.61.06,3.91.19,4.06.49,8.19,1.83,11.27,4.62,2.2,2.41,3.52,5.56,3.77,8.81.53,1.92-.08,3.85-.22,5.77-.6,2.37-1.41,4.83-3.19,6.59-2.6,2.81-6.32,4.29-10.05,4.83-1.64.23-3.28.58-4.95.51-11.97-.03-23.94,0-35.92-.01-.9.05-1.74-.42-2.3-1.11-.15-9-.01-18.01-.07-27.01ZM93.82,93.26c-.64,3.56-2.3,7.09-5.31,9.22-3.75,2.56-8.36,3.46-12.81,3.84-1.25.23-2.52.27-3.79.23-12.65-.01-25.3,0-37.95,0-1.6.16-2.33-1.71-2.35-3.04-.02-9.26,0-18.53,0-27.79,0-1.52-.16-3.12.57-4.52.12-.43.5-.67.9-.79h0c.41-.08.82-.12,1.23-.11,13.33,0,26.66,0,39.99,0,4.37.37,8.85,1.02,12.75,3.17,2.95,1.5,5.06,4.31,6.13,7.4,1.19,4,1.51,8.3.66,12.4Z"/>
</svg>