<?xml version="1.0" encoding="UTF-8"?>
<svg fill="#005EB8" id="Capa_3" data-name="Capa 3" xmlns="http://www.w3.org/2000/svg" viewBox="0 0 126.92 126.92">
  <path d="M63.46,1.71v30.88c-2.71.06-5.38.32-7.99,1.04-5.59,1.44-10.65,4.41-14.63,8.56-4.51,4.67-7.3,10.58-8.23,16.95V9.95c8.33-4.8,17.56-7.42,27.09-8.09l.72-.05,2.25-.06.78-.03Z"/>
  <path d="M1.54,65.13l-.02-1.63h31c0,3.37.45,6.7,1.4,9.89,2.35,7.89,7.89,14.38,15.31,17.91,1.17.58,2.33,1.06,3.58,1.48,2.25.78,4.52,1.2,6.83,1.58H9.7c-4.7-8.15-7.41-17.33-8.02-26.71l-.05-.81-.08-1.71Z"/>
  <circle cx="63.49" cy="63.35" r="26.91"/>
  <path d="M65.68,125.21h-2.23s0-30.86,0-30.86c9.17,0,17.84-4.02,23.76-11,3.95-4.61,6.34-10.2,7.18-16.21l.02,49.84c-8.47,4.88-17.95,7.68-27.74,8.16l-.99.06Z"/>
  <path d="M125.4,61.38v2.09s-30.97,0-30.97,0c-.01-11.41-6.17-21.88-16.15-27.36-3.34-1.85-6.98-2.95-10.77-3.54h49.59c5.01,8.6,7.76,18.17,8.25,28.03l.06.77Z"/>
</svg>
