<?xml version="1.0" encoding="UTF-8"?>
<svg id="Capa_2" data-name="Capa 2" xmlns="http://www.w3.org/2000/svg" viewBox="0 0 126.92 126.92">
  <defs>
    <style>
      .cls-1 {
        fill: #cc2229;
      }
    </style>
  </defs>
  <path class="cls-1" d="M123.13,86.74v2.98c-.46,4.23-2.73,8.2-5.63,11.36l-2.45,2.45c-1.25,1.25-2.67,2.25-4.12,3.27-9.93,6.97-23.5,10.84-35.47,11.9l-.78.07-.83.07-.83.06-1.08.07-1.65.05-.07.06h-12.93s-.12-.05-.16-.05l-1.29-.06-.84-.06-.96-.07c-7.34-.55-15.43-2.17-22.45-4.55-6.05-2.05-12.03-4.81-17.19-8.59-1.19-.87-2.33-1.72-3.37-2.75l-1.91-1.91c-2.76-3.01-5.03-6.79-5.35-10.94v-2.32c.32-3.97,2.39-7.36,5.03-10.23l1.34-1.34c3.18-2.94,6.97-5.34,10.84-7.31,4.2-2.14,8.55-3.87,13.01-5.38l6.52-2.04.05,1.51c.31,3.63,1.93,6.84,4.02,9.79,1.2,1.69,2.47,3.26,3.86,4.8l5.03,5.6c1.42,1.59,2.75,3.19,3.99,4.93,2.19,3.05,4.21,6.92,4.46,10.69l.06.86v1.54c-.02.98-.2,1.91-.41,2.88,0,.04.02.13.05.1l.09-.09,1.33-1.35c2.69-2.95,4.33-6.51,4.61-10.53v-2.78s-.04-.58-.04-.58c-.41-4.52-2.38-9.33-4.59-13.28l-.56-.6-.76-.83-.68-.74c-3.99-4.34-8.37-9.88-11.19-15.08l-1.34-2.68c-.62-1.23-1.06-2.49-1.49-3.81-.62-1.93-1.02-3.88-1.16-5.9l-.05-.71v-1.45s.07-1.02.07-1.02c.34-4.95,2.92-9.74,6.35-13.36-.22,1.18-.49,2.24-.49,3.38v2.07c.33,5.3,2.81,10.02,5.8,14.32,1.51,2.16,3.1,4.2,4.78,6.23l4.55,5.51c2.68,3.25,5.61,7.17,7.38,10.96l.98,2.47c.52,1.53.82,3.06.92,4.67v1.62c-.07.96-.19,1.88-.42,2.83.01.06.03.13.05.1l.07-.1,1.38-1.94c1.41-1.99,2.55-4.13,3.44-6.41.79-1.99,1.27-4.03,1.42-6.16l.04-.52v-1.63c-.12-1.95-.5-3.81-1.17-5.65-1.46-4.04-4.22-7.9-7.18-10.96l-1.54-1.6c-5.75-6.3-12.15-14.81-12.76-23.58l-.04-.65v-1.94c.2-3.24,1.07-6.13,2.59-9.01,1.05-1.98,2.29-3.79,3.72-5.53l-.03.77-.05.45v3.3s.08,1.02.08,1.02c.42,6.12,2.88,11.83,6.24,16.92,1.47,2.23,3.05,4.33,4.76,6.38l4.64,5.61c1.4,1.69,2.7,3.37,3.9,5.2,1.76,2.68,3.14,5.54,3.4,8.76v1.88c-.1,1.32-.39,2.6-.88,3.87,8.5,2.14,18.05,5.35,25.3,10.39,1.27.89,2.49,1.76,3.58,2.85l1.66,1.66c2.59,2.82,4.34,6.04,4.79,9.85Z"/>
</svg>