<?xml version="1.0" encoding="UTF-8"?>
<svg id="Capa_1" data-name="Capa 1" xmlns="http://www.w3.org/2000/svg" viewBox="0 0 126.92 126.92">
  <defs>
    <style>
      .cls-1 {
        fill: #e41c22;
      }
    </style>
  </defs>
  <path class="cls-1" d="M99.64,24.92h-35.05c-9.55,0-18.77,3.53-25.89,9.91-7.12,6.38-11.65,15.17-12.71,24.69-3.26-5.93-4.92-12.6-4.82-19.37.1-6.77,1.96-13.39,5.39-19.22,3.43-5.83,8.32-10.66,14.18-14.02,5.86-3.36,12.5-5.13,19.25-5.13h60.49l-20.84,23.13Z"/>
  <path class="cls-1" d="M29.54,102.79h35.05c9.55,0,18.77-3.53,25.89-9.91,7.12-6.38,11.65-15.17,12.71-24.69,3.26,5.93,4.92,12.61,4.82,19.37-.1,6.77-1.96,13.39-5.39,19.22-3.43,5.83-8.32,10.66-14.19,14.02-5.86,3.36-12.5,5.13-19.25,5.13H8.7l20.84-23.14Z"/>
  <path class="cls-1" d="M64.59,95.12c17.23,0,31.2-14,31.2-31.27s-13.97-31.27-31.2-31.27-31.19,14-31.19,31.27,13.97,31.27,31.19,31.27Z"/>
</svg>