<?xml version="1.0" standalone="no"?>
<!DOCTYPE svg PUBLIC "-//W3C//DTD SVG 20010904//EN"
 "http://www.w3.org/TR/2001/REC-SVG-20010904/DTD/svg10.dtd">
<svg version="1.0" xmlns="http://www.w3.org/2000/svg"
 width="390.000000pt" height="99.000000pt" viewBox="0 0 390.000000 99.000000"
 preserveAspectRatio="xMidYMid meet">

<g transform="translate(0.000000,99.000000) scale(0.100000,-0.100000)"
fill="#000000" stroke="none">
<path d="M3274 979 c-11 -13 -234 -599 -234 -613 0 -4 35 -6 78 -4 l77 3 85
225 c47 124 89 231 93 238 6 9 61 12 216 12 200 0 209 1 242 23 31 21 72 98
59 111 -3 2 -140 7 -305 11 -250 6 -302 5 -311 -6z"/>
<path d="M2604 964 c-35 -17 -64 -61 -64 -98 l0 -26 306 2 307 3 12 42 c7 23
15 53 19 67 l6 26 -277 0 c-227 0 -284 -3 -309 -16z"/>
<path d="M1537 843 c-3 -5 -8 -33 -12 -63 -13 -95 -17 -100 -80 -100 -66 0
-100 -16 -143 -64 -34 -39 -47 -87 -39 -147 7 -54 31 -88 75 -106 33 -14 41
-14 80 -1 23 9 42 11 42 6 0 -5 21 -8 47 -6 l48 3 37 230 c20 127 37 236 37
243 1 13 -84 18 -92 5z m-72 -243 c27 -10 27 -12 20 -68 -9 -71 -18 -88 -51
-96 -44 -11 -74 16 -74 67 0 57 22 88 77 106 1 1 14 -4 28 -9z"/>
<path d="M1180 820 c-22 -22 -26 -60 -8 -78 7 -7 27 -12 45 -12 33 0 53 21 53
54 0 20 -35 56 -55 56 -8 0 -24 -9 -35 -20z"/>
<path d="M74 823 c-5 -4 -23 -91 -38 -193 -41 -275 -41 -272 16 -268 l42 3 13
85 c21 134 42 134 107 0 40 -83 42 -85 80 -88 68 -6 69 -1 26 94 -22 47 -40
90 -40 94 0 4 15 17 33 28 86 50 88 185 4 228 -35 19 -223 32 -243 17z m186
-103 c44 -44 2 -100 -76 -100 -49 0 -51 4 -38 83 6 36 8 37 50 37 31 0 50 -6
64 -20z"/>
<path d="M580 786 c-16 -25 -30 -47 -30 -50 0 -3 15 -6 33 -6 26 1 40 11 75
50 l44 50 -46 0 c-42 0 -47 -3 -76 -44z"/>
<path d="M2710 721 c-14 -27 -13 -94 2 -109 8 -8 46 -12 106 -12 104 0 103 1
65 -73 l-14 -29 -222 4 c-217 3 -222 3 -225 -17 -4 -30 38 -87 78 -107 30 -16
66 -18 256 -18 l220 0 57 153 c31 83 63 169 72 190 l15 37 -200 0 c-187 0
-200 -1 -210 -19z"/>
<path d="M540 680 c-86 -16 -132 -61 -151 -145 -10 -47 -10 -60 5 -99 20 -51
54 -78 99 -77 18 0 64 0 104 1 40 0 74 4 77 9 9 14 47 264 42 276 -4 11 -57
28 -116 38 -14 2 -41 1 -60 -3z m72 -85 c2 -3 0 -35 -6 -71 -11 -67 -30 -94
-68 -94 -28 0 -58 37 -58 70 0 35 23 86 42 93 17 7 83 8 90 2z"/>
<path d="M2115 682 c-53 -8 -69 -15 -91 -39 -31 -33 -33 -94 -4 -123 10 -10
44 -27 75 -35 42 -13 55 -21 53 -33 -4 -23 -46 -26 -99 -7 -24 8 -48 17 -53
18 -5 1 -13 -13 -16 -31 -10 -43 5 -58 73 -72 101 -21 181 17 193 91 8 49 -23
85 -91 105 -59 17 -74 29 -56 47 10 10 61 3 127 -18 19 -6 22 -2 26 30 2 21
-1 40 -8 46 -14 12 -100 26 -129 21z"/>
<path d="M785 658 c-19 -87 -75 -470 -70 -478 9 -14 71 -12 82 2 6 7 16 51 24
96 l13 84 39 -6 c47 -8 105 7 142 36 83 65 85 232 4 273 -32 17 -92 20 -119 5
-13 -7 -21 -7 -25 0 -3 5 -24 10 -45 10 -33 0 -40 -4 -45 -22z m179 -74 c19
-18 21 -92 3 -115 -21 -27 -56 -41 -89 -34 l-30 7 7 56 c11 88 19 102 59 102
19 0 42 -7 50 -16z"/>
<path d="M1146 658 c-8 -39 -46 -275 -46 -288 0 -7 16 -10 48 -8 l47 3 22 135
c31 190 32 180 -22 180 -38 0 -45 -3 -49 -22z"/>
<path d="M1699 657 c-99 -67 -106 -232 -12 -280 46 -24 88 -29 138 -16 145 37
182 238 55 304 -46 24 -140 19 -181 -8z m145 -79 c38 -54 3 -138 -57 -138 -38
0 -50 7 -66 37 -39 75 76 169 123 101z"/>
<path d="M3264 408 c-4 -7 -3 -8 4 -4 8 5 12 -1 12 -16 0 -19 -2 -20 -11 -8
-8 12 -10 12 -7 1 2 -8 11 -19 20 -25 20 -12 49 8 47 33 -1 13 -2 13 -6 -2 -2
-9 -9 -15 -14 -11 -5 3 -7 9 -4 14 3 5 -3 14 -14 20 -14 7 -22 7 -27 -2z m41
-38 c3 -5 -1 -10 -10 -10 -9 0 -13 5 -10 10 3 6 8 10 10 10 2 0 7 -4 10 -10z"/>
<path d="M2065 220 c-6 -26 -11 -30 -41 -30 -31 0 -37 -4 -51 -37 -10 -26 -13
-45 -6 -63 7 -21 15 -25 48 -25 l40 0 17 75 c9 41 17 83 17 93 2 29 -17 19
-24 -13z m-17 -66 c5 -34 -16 -74 -38 -74 -16 0 -20 7 -20 32 0 53 51 90 58
42z"/>
<path d="M3538 223 c-10 -26 -17 -31 -40 -31 -32 1 -53 -21 -62 -65 -9 -46 8
-67 53 -65 l39 1 17 89 c18 90 14 127 -7 71z m-20 -76 c4 -35 -14 -67 -38 -67
-16 0 -20 7 -20 32 0 33 26 71 44 65 6 -2 12 -15 14 -30z"/>
<path d="M855 230 c-4 -6 5 -10 19 -10 30 0 29 4 11 -80 -7 -36 -12 -66 -10
-68 11 -11 23 13 30 54 11 75 21 94 50 94 14 0 25 5 25 10 0 6 -26 10 -59 10
-33 0 -63 -4 -66 -10z"/>
<path d="M2332 233 c-35 -14 -58 -133 -30 -161 26 -26 98 -4 98 29 0 15 -18
10 -28 -7 -5 -9 -18 -14 -33 -12 -30 4 -37 49 -15 102 11 28 21 36 40 36 16 0
27 -7 31 -20 8 -25 25 -26 25 -2 0 35 -44 53 -88 35z"/>
<path d="M2971 190 c-20 -93 -24 -130 -13 -130 5 0 13 15 16 34 6 30 10 34 48
39 45 6 68 27 68 62 0 32 -19 45 -66 45 l-42 0 -11 -50z m97 9 c4 -23 -25 -49
-54 -49 -20 0 -24 5 -24 28 0 16 3 32 7 36 13 13 68 2 71 -15z"/>
<path d="M1730 215 c0 -8 -7 -18 -16 -22 -11 -4 -12 -8 -4 -13 8 -5 8 -19 1
-50 -11 -50 -6 -70 20 -70 16 0 17 3 8 18 -15 25 -3 88 19 101 10 6 12 11 5
11 -7 0 -13 6 -13 14 0 8 -4 18 -10 21 -5 3 -10 -1 -10 -10z"/>
<path d="M1054 190 c-29 -11 -44 -35 -18 -28 10 3 25 7 33 9 8 2 17 -4 19 -13
3 -14 -3 -18 -22 -18 -24 0 -66 -30 -66 -47 1 -24 20 -34 56 -30 42 4 51 19
53 84 1 37 -22 55 -55 43z m26 -84 c0 -15 -37 -32 -47 -22 -3 3 -3 12 0 21 8
19 47 20 47 1z"/>
<path d="M1174 192 c-29 -3 -31 -6 -41 -60 -6 -31 -7 -61 -3 -66 8 -8 14 5 25
62 8 37 42 62 51 37 4 -8 3 -35 0 -60 -10 -62 10 -58 23 5 6 28 11 55 11 60 0
15 -33 26 -66 22z"/>
<path d="M1282 184 c-31 -22 -28 -49 8 -64 31 -13 41 -40 14 -40 -8 0 -24 5
-36 11 -17 9 -19 8 -16 -8 5 -28 66 -25 85 4 14 21 13 24 -22 44 -33 20 -35
23 -21 37 14 14 17 14 36 -3 18 -16 20 -16 20 -2 0 9 -9 21 -19 27 -25 13 -22
13 -49 -6z"/>
<path d="M1516 179 c-20 -15 -26 -29 -26 -58 0 -90 92 -80 107 11 4 29 1 38
-18 52 -30 20 -31 20 -63 -5z m54 -19 c15 -27 -8 -75 -35 -75 -27 0 -33 50 -9
76 22 24 31 24 44 -1z"/>
<path d="M1813 189 c-27 -10 -43 -39 -43 -76 0 -36 16 -53 51 -53 40 0 45 18
7 22 -22 2 -34 9 -36 21 -3 14 4 17 37 17 44 0 56 10 46 40 -9 27 -35 39 -62
29z m36 -22 c14 -17 4 -27 -26 -27 -25 0 -29 10 -11 28 15 15 23 15 37 -1z"/>
<path d="M2133 189 c-27 -10 -43 -39 -43 -76 0 -37 16 -53 52 -53 36 0 37 18
1 22 -17 2 -29 10 -31 21 -3 14 4 17 37 17 39 0 41 2 41 30 0 34 -25 52 -57
39z m35 -32 c3 -12 -4 -17 -22 -17 -28 0 -33 9 -14 28 15 15 32 10 36 -11z"/>
<path d="M2463 190 c-13 -5 -23 -14 -23 -20 0 -13 6 -13 30 0 13 7 21 6 30 -5
10 -12 9 -16 -1 -19 -70 -19 -74 -21 -74 -51 0 -28 2 -30 42 -31 l42 -1 12 55
c10 50 9 57 -7 69 -20 15 -21 15 -51 3z m37 -78 c0 -14 -23 -32 -42 -32 -21 0
-23 11 -6 28 13 13 48 16 48 4z"/>
<path d="M2635 176 c-17 -17 -25 -36 -25 -59 0 -39 15 -57 48 -57 21 0 22 -2
12 -15 -7 -8 -23 -15 -36 -15 -13 0 -24 -4 -24 -10 0 -16 57 -12 74 5 8 8 20
41 26 73 6 31 14 65 16 75 4 12 0 17 -15 17 -10 0 -26 3 -35 6 -9 3 -26 -5
-41 -20z m58 -57 c-7 -27 -14 -34 -34 -34 -21 0 -24 4 -22 35 2 42 30 68 51
47 10 -10 11 -23 5 -48z"/>
<path d="M2769 181 l-24 -19 30 1 c41 3 43 -14 4 -27 -37 -13 -55 -36 -46 -60
5 -12 17 -15 49 -13 l43 3 9 53 c8 47 7 56 -9 67 -24 18 -28 18 -56 -5z m39
-73 c-6 -16 -36 -34 -44 -26 -3 4 -4 14 -1 23 7 17 51 21 45 3z"/>
<path d="M3133 189 c-27 -10 -43 -39 -43 -76 0 -35 16 -53 46 -53 34 0 39 18
7 22 -17 2 -29 10 -31 21 -3 14 4 17 37 17 39 0 41 2 41 30 0 34 -25 52 -57
39z m37 -34 c0 -9 -9 -15 -25 -15 -24 0 -32 10 -18 23 12 13 43 7 43 -8z"/>
<path d="M3239 187 c-32 -17 -31 -48 4 -65 15 -7 27 -17 27 -23 0 -15 -30 -23
-43 -10 -15 15 -27 14 -27 -3 0 -28 59 -35 84 -10 25 25 19 43 -21 59 -34 14
-36 17 -20 32 15 16 18 15 37 -2 18 -16 20 -16 20 -2 0 25 -32 38 -61 24z"/>
<path d="M3349 180 c-18 -14 -20 -19 -8 -20 8 0 21 6 27 12 10 10 15 10 22 -2
15 -23 12 -30 -13 -30 -34 0 -69 -28 -65 -53 3 -19 9 -22 48 -21 38 1 45 4 51
25 14 49 10 88 -10 99 -26 13 -25 13 -52 -10z m41 -74 c0 -15 -37 -32 -47 -22
-3 3 -3 12 0 21 8 19 47 20 47 1z"/>
<path d="M3602 189 c-33 -12 -27 -30 8 -22 23 4 30 2 30 -11 0 -10 -8 -16 -23
-16 -35 0 -59 -22 -55 -51 3 -21 8 -24 45 -24 l42 0 11 47 c5 26 7 54 4 62 -7
18 -34 25 -62 15z m28 -89 c-12 -23 -50 -27 -50 -6 0 15 15 24 43 25 15 1 16
-2 7 -19z"/>
<path d="M955 176 c-13 -39 -21 -107 -15 -111 12 -7 17 3 25 53 5 33 13 45 31
52 13 5 24 12 24 14 0 10 -62 2 -65 -8z"/>
<path d="M1371 138 c-21 -109 -23 -128 -13 -128 6 0 13 13 17 29 5 23 10 27
31 23 46 -9 83 52 63 105 -7 19 -16 23 -48 23 l-40 0 -10 -52z m79 -2 c0 -36
-15 -56 -43 -56 -17 0 -19 5 -14 41 3 23 11 45 18 50 22 13 39 -2 39 -35z"/>
<path d="M1626 174 c-13 -34 -18 -114 -7 -114 6 0 11 8 11 18 0 9 5 34 11 55
7 26 15 37 29 37 11 0 20 4 20 9 0 15 -58 10 -64 -5z"/>
<path d="M2556 174 c-13 -33 -19 -117 -8 -110 6 3 14 27 18 52 5 35 12 47 30
54 32 13 30 19 -6 18 -16 -1 -31 -7 -34 -14z"/>
</g>
</svg>
